<svg id="Layer_1" data-name="Layer 1" xmlns="http://www.w3.org/2000/svg" viewBox="0 0 96 96"><defs><style>.cls-1{fill:#9c7e5d;}.cls-1,.cls-2,.cls-3{stroke:#4d4d4d;}.cls-1,.cls-2,.cls-5{stroke-miterlimit:10;}.cls-2{fill:#a3866a;}.cls-3{fill:#333;stroke-linecap:round;stroke-linejoin:round;}.cls-4,.cls-5{fill:#8ad84e;}.cls-5{stroke:#333;}</style></defs><title>3</title><rect class="cls-1" x="22.3" y="22.3" width="51.4" height="51.4" rx="0.83" ry="0.83" transform="translate(-19.88 48) rotate(-45)"/><rect class="cls-1" x="22.3" y="22.3" width="51.4" height="51.4" rx="0.83" ry="0.83" transform="translate(-19.88 48) rotate(-45)"/><path class="cls-2" d="M69.43,41.39,54.61,26.57l-6-6a.82.82,0,0,0-1.16,0l-6,6L26.57,41.39l-6,6a.82.82,0,0,0,0,1.16l6,6L41.39,69.43l6,6a.82.82,0,0,0,1.16,0l6-6L69.43,54.61l6-6a.82.82,0,0,0,0-1.16ZM51.24,66.06,48,62.82l-3.24,3.24a.83.83,0,0,1-1.17,0L29.36,51.82,33.18,48l-3.82-3.82L43.59,29.94a.83.83,0,0,1,1.17,0L48,33.18l3.24-3.24a.83.83,0,0,1,1.17,0L66.06,43.59a.83.83,0,0,1,0,1.17L62.82,48l3.24,3.24a.83.83,0,0,1,0,1.17L52.41,66.06A.83.83,0,0,1,51.24,66.06Z"/><path class="cls-3" d="M51.21,65.89,48,62.68l-3.21,3.21a.82.82,0,0,1-1.16,0l-14.1-14.1L33.32,48l-3.79-3.79,14.1-14.1a.82.82,0,0,1,1.16,0L48,33.32l3.21-3.21a.82.82,0,0,1,1.16,0L65.89,43.63a.82.82,0,0,1,0,1.16L62.68,48l3.21,3.21a.82.82,0,0,1,0,1.16L52.37,65.89A.82.82,0,0,1,51.21,65.89Z"/><rect class="cls-4" x="45.11" y="45.11" width="5.79" height="5.79" rx="0.09" ry="0.09" transform="translate(-19.88 48) rotate(-45)"/><rect class="cls-5" x="44.53" y="44.53" width="6.94" height="6.94" rx="0.82" ry="0.82" transform="translate(-19.88 48) rotate(-45)"/></svg>