<svg id="Layer_1" data-name="Layer 1" xmlns="http://www.w3.org/2000/svg" viewBox="0 0 144 96"><defs><style>.cls-1{fill:#c9a144;}.cls-2{fill:none;}.cls-2,.cls-3,.cls-4{stroke:#4d4d4d;stroke-linecap:round;stroke-linejoin:round;}.cls-3{fill:#e2c227;}.cls-4{fill:#72181f;}.cls-5{fill:#f29e39;stroke:#72181f;stroke-miterlimit:10;}</style></defs><title>7</title><path class="cls-1" d="M35.28,12.54c0-6.18,6.63-10.86,10.49-9.2C40.4,7.17,45,15.6,45,15.6a30.86,30.86,0,0,0-5.73,4.76l-.4-.16C36.28,17.61,35.28,15,35.28,12.54Z"/><path class="cls-1" d="M38.26,71.48c2.08,3.9,4.79,7.76,7.51,10C38.87,93.76,24.31,93,24.31,93,35,93,38.42,80,38.87,76.9A12.85,12.85,0,0,0,38.26,71.48Z"/><path class="cls-1" d="M39.27,20.36a30.28,30.28,0,0,0-7.14,11.52c1.32-5.17.53-10.37-1.69-16.28C28.14,9.47,35,3.34,35,3.34a31.62,31.62,0,0,0,0,9.19h.24c0,2.42,1,5.07,3.59,7.66Z"/><path class="cls-1" d="M35.54,65.44v0a44.8,44.8,0,0,0,2.72,6,12.85,12.85,0,0,1,.61,5.42C38.42,80,35,93,24.31,93S9,81.5,10.52,78.43l.19-.85A13.83,13.83,0,0,0,19,80C33.51,80,35,63.87,35,63.87,35.18,64.37,35.35,64.89,35.54,65.44Z"/><path class="cls-1" d="M32.74,56.21A16.45,16.45,0,0,1,35,63.87a4.4,4.4,0,0,0-.77-.82c-2.54-2.16-9.4-4.72-16.86-6.07-8.42-1.54-10-10-10-10l-.33-.13a13.51,13.51,0,0,1,1.1-2.17l.43-.26a8.31,8.31,0,0,0,3.4,3.32c3.07,1.53,10,2.3,13.79,3.83a23.65,23.65,0,0,1,6.89,4.59Z"/><path class="cls-1" d="M16.29,63.18c-5.8-.43-9.76-2.88-10.37-7.74a17.19,17.19,0,0,1,1.2-8.55l.33.13s1.54,8.42,10,10c7.46,1.35,14.32,3.91,16.86,6.07a4.4,4.4,0,0,1,.77.82,41.3,41.3,0,0,0-13.79-.76A30.78,30.78,0,0,1,16.29,63.18Z"/><path class="cls-1" d="M32.71,56.17l0,0a23.65,23.65,0,0,0-6.89-4.59c-3.83-1.53-10.72-2.3-13.79-3.83a8.31,8.31,0,0,1-3.4-3.32C4.5,37.15,10.52,24,10.52,24s0,10,7.66,16.09C25.54,46,32.19,55.43,32.71,56.17Z"/><path class="cls-1" d="M35,63.87S33.51,80,19,80a13.83,13.83,0,0,1-8.24-2.39c-4.46-3.16-5.78-8.69-6.16-11.66A1.67,1.67,0,0,1,6.3,64a39.76,39.76,0,0,0,10-.85,30.78,30.78,0,0,0,5-.07A41.3,41.3,0,0,1,35,63.87Z"/><path class="cls-1" d="M30.44,15.6c2.22,5.91,3,11.11,1.69,16.28,0,.09-.06.19-.1.29,1-5-4.7-12-7-14.27-2.3-10,4.59-13,10-14.56C35,3.34,28.14,9.47,30.44,15.6Z"/><path class="cls-1" d="M32,32.17a1.67,1.67,0,0,1-.06.29,53.41,53.41,0,0,0-1.5,8.43h0c0-4.6-4.6-10.73-9.19-17.63-4.48-6.72-.23-13.43,0-13.78-.08.26-.94,3.63,3.84,8.42C27.33,20.15,33,27.19,32,32.17Z"/><path class="cls-1" d="M30.44,40.89h0c0,.51,0,.76,0,.76s-5.36-6.13-10-7.66c-2.38-.79-6.19-4.46-7.2-9.3-.94-4.51.57-10,8-15.21h0c-.22.35-4.47,7.06,0,13.78C25.84,30.16,30.44,36.29,30.44,40.89Z"/><path class="cls-1" d="M30.44,41.65c-.72,8.68,2,14,2.27,14.52-.52-.74-7.17-10.17-14.53-16.05C10.52,34,10.52,24,10.52,24l2.3.76.46-.1c1,4.84,4.82,8.51,7.2,9.3C25.08,35.52,30.44,41.65,30.44,41.65Z"/><path class="cls-2" d="M38.87,20.2c-2.59-2.59-3.59-5.24-3.59-7.66,0-6.18,6.63-10.86,10.49-9.2C40.4,7.17,45,15.6,45,15.6a30.86,30.86,0,0,0-5.73,4.76,30.28,30.28,0,0,0-7.14,11.52c0,.09-.06.19-.1.29a25.22,25.22,0,0,0-.82,3.35"/><path class="cls-2" d="M21.24,9.48c-7.39,5.17-8.9,10.7-8,15.21,1,4.84,4.82,8.51,7.2,9.3,4.6,1.53,10,7.66,10,7.66s0-.25,0-.76A53.41,53.41,0,0,1,32,32.46a1.67,1.67,0,0,0,.06-.29c1-5-4.7-12-7-14.27-2.3-10,4.59-13,10-14.56a31.62,31.62,0,0,0,0,9.19"/><path class="cls-2" d="M25.08,17.9c-4.78-4.79-3.92-8.16-3.84-8.42"/><path class="cls-2" d="M32.73,56.2a23.65,23.65,0,0,0-6.89-4.59c-3.83-1.53-10.72-2.3-13.79-3.83a8.31,8.31,0,0,1-3.4-3.32C4.5,37.15,10.52,24,10.52,24l2.3.76"/><path class="cls-2" d="M30.44,41.65c-.72,8.68,2,14,2.27,14.52"/><path class="cls-2" d="M21.25,9.47h0c-.22.35-4.47,7.06,0,13.78,4.59,6.9,9.19,13,9.19,17.63"/><path class="cls-2" d="M32,32.46c.06-.2.11-.39.16-.58,1.32-5.17.53-10.37-1.69-16.28C28.14,9.47,35,3.34,35,3.34"/><path class="cls-2" d="M8.22,44.72a13.51,13.51,0,0,0-1.1,2.17,17.19,17.19,0,0,0-1.2,8.55c.61,4.86,4.57,7.31,10.37,7.74a30.78,30.78,0,0,0,5-.07A41.3,41.3,0,0,1,35,63.87a16.45,16.45,0,0,0-2.3-7.66h0l0,0c-.52-.74-7.17-10.17-14.53-16.05C10.52,34,10.52,24,10.52,24"/><path class="cls-2" d="M7.45,47s1.54,8.42,10,10c7.46,1.35,14.32,3.91,16.86,6.07a4.4,4.4,0,0,1,.77.82S33.51,80,19,80a13.83,13.83,0,0,1-8.24-2.39c-4.46-3.16-5.78-8.69-6.16-11.66A1.67,1.67,0,0,1,6.3,64a39.76,39.76,0,0,0,10-.85l.36-.07"/><path class="cls-2" d="M35.54,65.46a29.11,29.11,0,0,1,2.72,6,12.85,12.85,0,0,1,.61,5.42C38.42,80,35,93,24.31,93S9,81.5,10.52,78.43"/><path class="cls-2" d="M35,64.64s.19.29.5.8"/><path class="cls-2" d="M24.31,93s14.56.77,21.46-11.49c-2.72-2.26-5.43-6.12-7.51-10a44.8,44.8,0,0,1-2.72-6v0c-.19-.55-.36-1.07-.5-1.57"/><path class="cls-1" d="M107.21,12.54c0-6.18-6.64-10.86-10.49-9.2,5.36,3.83.76,12.26.76,12.26a31.08,31.08,0,0,1,5.74,4.76l.39-.16C106.2,17.61,107.21,15,107.21,12.54Z"/><path class="cls-1" d="M104.23,71.48c-2.09,3.9-4.8,7.76-7.51,10C103.61,93.76,118.17,93,118.17,93c-10.72,0-14.11-13-14.56-16.09A12.86,12.86,0,0,1,104.23,71.48Z"/><path class="cls-1" d="M103.22,20.36a30.53,30.53,0,0,1,7.14,11.52C109,26.71,109.83,21.51,112,15.6c2.3-6.13-4.59-12.26-4.59-12.26a32,32,0,0,1,0,9.19h-.24c0,2.42-1,5.07-3.6,7.66Z"/><path class="cls-1" d="M107,65.44v0a44.67,44.67,0,0,1-2.71,6,12.86,12.86,0,0,0-.62,5.42C104.06,80,107.45,93,118.17,93S133.5,81.5,132,78.43l-.2-.85A13.82,13.82,0,0,1,123.54,80c-14.56,0-16.09-16.1-16.09-16.1C107.3,64.37,107.13,64.89,107,65.44Z"/><path class="cls-1" d="M109.74,56.21a16.51,16.51,0,0,0-2.29,7.66,4,4,0,0,1,.76-.82c2.55-2.16,9.4-4.72,16.86-6.07,8.43-1.54,10-10,10-10l.33-.13a14.11,14.11,0,0,0-1.09-2.17l-.43-.26a8.34,8.34,0,0,1-3.41,3.32c-3.06,1.53-10,2.3-13.79,3.83a23.82,23.82,0,0,0-6.89,4.59Z"/><path class="cls-1" d="M126.2,63.18c5.8-.43,9.76-2.88,10.36-7.74a17,17,0,0,0-1.2-8.55L135,47s-1.53,8.42-10,10c-7.46,1.35-14.31,3.91-16.86,6.07a4,4,0,0,0-.76.82,41.26,41.26,0,0,1,13.79-.76A30.75,30.75,0,0,0,126.2,63.18Z"/><path class="cls-1" d="M109.77,56.17l0,0a23.82,23.82,0,0,1,6.89-4.59c3.83-1.53,10.73-2.3,13.79-3.83a8.34,8.34,0,0,0,3.41-3.32C138,37.15,132,24,132,24s0,10-7.67,16.09C117,46,110.3,55.43,109.77,56.17Z"/><path class="cls-1" d="M107.45,63.87S109,80,123.54,80a13.82,13.82,0,0,0,8.23-2.39c4.46-3.16,5.78-8.69,6.17-11.66A1.69,1.69,0,0,0,136.18,64a39.65,39.65,0,0,1-10-.85,30.75,30.75,0,0,1-5-.07A41.26,41.26,0,0,0,107.45,63.87Z"/><path class="cls-1" d="M112,15.6c-2.21,5.91-3,11.11-1.68,16.28a2.81,2.81,0,0,1,.1.31c-1-5,4.69-12,7-14.29,2.3-10-4.6-13-10-14.56C107.45,3.34,114.34,9.47,112,15.6Z"/><path class="cls-1" d="M110.46,32.19c0,.09,0,.17.05.27a52.2,52.2,0,0,1,1.5,8.43h0c0-4.6,4.6-10.73,9.2-17.63,4.47-6.72.23-13.43,0-13.78.07.26.94,3.63-3.84,8.42C115.15,20.16,109.47,27.21,110.46,32.19Z"/><path class="cls-1" d="M112,40.89h0c0,.51,0,.76,0,.76s5.37-6.13,10-7.66c2.38-.79,6.2-4.46,7.2-9.3.94-4.51-.57-10-7.95-15.21h0c.22.35,4.46,7.06,0,13.78C116.64,30.16,112,36.29,112,40.89Z"/><path class="cls-1" d="M112,41.65c.72,8.68-2,14-2.27,14.52C110.3,55.43,117,46,124.3,40.12,132,34,132,24,132,24l-2.3.76-.47-.1c-1,4.84-4.82,8.51-7.2,9.3C117.41,35.52,112,41.65,112,41.65Z"/><path class="cls-2" d="M103.61,20.2c2.59-2.59,3.6-5.24,3.6-7.66,0-6.18-6.64-10.86-10.49-9.2,5.36,3.83.76,12.26.76,12.26a31.08,31.08,0,0,1,5.74,4.76,30.53,30.53,0,0,1,7.14,11.52,2.81,2.81,0,0,1,.1.31,27.94,27.94,0,0,1,.82,3.33"/><path class="cls-2" d="M121.25,9.48c7.38,5.17,8.89,10.7,7.95,15.21-1,4.84-4.82,8.51-7.2,9.3-4.59,1.53-10,7.66-10,7.66s0-.25,0-.76a52.2,52.2,0,0,0-1.5-8.43c0-.1,0-.18-.05-.27-1-5,4.69-12,7-14.29,2.3-10-4.6-13-10-14.56a32,32,0,0,1,0,9.19"/><path class="cls-2" d="M117.41,17.9c4.78-4.79,3.91-8.16,3.84-8.42"/><path class="cls-2" d="M109.75,56.2a23.82,23.82,0,0,1,6.89-4.59c3.83-1.53,10.73-2.3,13.79-3.83a8.34,8.34,0,0,0,3.41-3.32C138,37.15,132,24,132,24l-2.3.76"/><path class="cls-2" d="M112,41.65c.72,8.68-2,14-2.27,14.52"/><path class="cls-2" d="M121.24,9.47h0c.22.35,4.46,7.06,0,13.78-4.6,6.9-9.2,13-9.2,17.63"/><path class="cls-2" d="M110.51,32.46c-.05-.2-.11-.39-.15-.58C109,26.71,109.83,21.51,112,15.6c2.3-6.13-4.59-12.26-4.59-12.26"/><path class="cls-2" d="M134.27,44.72a14.11,14.11,0,0,1,1.09,2.17,17,17,0,0,1,1.2,8.55c-.6,4.86-4.56,7.31-10.36,7.74a30.75,30.75,0,0,1-5-.07,41.26,41.26,0,0,0-13.79.76,16.51,16.51,0,0,1,2.29-7.66h0l0,0C110.3,55.43,117,46,124.3,40.12,132,34,132,24,132,24"/><path class="cls-2" d="M135,47s-1.53,8.42-10,10c-7.46,1.35-14.31,3.91-16.86,6.07a4,4,0,0,0-.76.82S109,80,123.54,80a13.82,13.82,0,0,0,8.23-2.39c4.46-3.16,5.78-8.69,6.17-11.66A1.69,1.69,0,0,0,136.18,64a39.65,39.65,0,0,1-10-.85l-.36-.07"/><path class="cls-2" d="M106.94,65.46a28.65,28.65,0,0,0-2.71,6,12.86,12.86,0,0,0-.62,5.42C104.06,80,107.45,93,118.17,93S133.5,81.5,132,78.43"/><path class="cls-2" d="M107.45,64.64s-.2.29-.5.8"/><path class="cls-2" d="M118.17,93s-14.56.77-21.45-11.49c2.71-2.26,5.42-6.12,7.51-10a44.67,44.67,0,0,0,2.71-6v0c.18-.55.35-1.07.5-1.57"/><polygon class="cls-3" points="35.85 47.78 51.34 38.96 47.47 22.83 62.96 26.7 72 12.5 81.04 26.7 96.53 22.83 92.66 38.96 108.14 47.78 92.66 57.04 96.53 73.17 81.04 69.3 72 83.5 62.96 69.3 47.47 73.17 51.34 57.04 35.85 47.78"/><polyline class="cls-3" points="62.96 26.7 67.48 32.51 72 38.32 81.04 26.7"/><polyline class="cls-3" points="62.96 69.3 72 57.68 81.04 69.3"/><polygon class="cls-4" points="67.48 63.81 56.51 63.81 56.51 53.49 51.02 48.11 56.51 42.51 56.51 32.19 66.84 32.19 72 38.64 77.16 32.19 87.49 32.19 87.49 42.51 92.98 48.11 87.49 53.49 87.49 63.81 76.52 63.81 72 58.01 67.48 63.81"/><rect class="cls-5" x="78.62" y="55" width="4.24" height="4.24" rx="0.5" ry="0.5" transform="translate(-16.74 73.82) rotate(-45)"/><rect class="cls-5" x="78.62" y="36.09" width="4.24" height="4.24" rx="0.5" ry="0.5" transform="translate(-3.37 68.28) rotate(-45)"/><rect class="cls-5" x="60.53" y="55" width="4.24" height="4.24" rx="0.5" ry="0.5" transform="translate(-22.04 61.03) rotate(-45)"/><rect class="cls-5" x="60.53" y="36.09" width="4.24" height="4.24" rx="0.5" ry="0.5" transform="translate(-8.67 55.49) rotate(-45)"/><rect class="cls-5" x="67.73" y="43.73" width="8.54" height="8.54" rx="1.01" ry="1.01" transform="translate(-12.85 64.97) rotate(-45)"/></svg>