<svg id="Layer_1" data-name="Layer 1" xmlns="http://www.w3.org/2000/svg" viewBox="0 0 144 96"><defs><style>.cls-1{fill:#b3b3b3;}.cls-1,.cls-2,.cls-4,.cls-5{stroke:#4d4d4d;stroke-linecap:round;stroke-linejoin:round;}.cls-2{fill:#328f78;}.cls-3{fill:#f29e39;stroke:#333;stroke-miterlimit:10;}.cls-4{fill:#c9a144;}.cls-5{fill:none;}</style></defs><title>6</title><polygon class="cls-1" points="35.85 47.78 51.34 38.96 47.47 22.83 62.96 26.7 72 12.5 81.04 26.7 96.53 22.83 92.66 38.96 108.14 47.78 92.66 57.04 96.53 73.17 81.04 69.3 72 83.5 62.96 69.3 47.47 73.17 51.34 57.04 35.85 47.78"/><polyline class="cls-1" points="62.96 26.7 67.48 32.51 72 38.32 81.04 26.7"/><polyline class="cls-1" points="62.96 69.3 72 57.68 81.04 69.3"/><polygon class="cls-2" points="67.48 63.81 56.51 63.81 56.51 53.49 51.02 48.11 56.51 42.51 56.51 32.19 66.84 32.19 72 38.64 77.16 32.19 87.49 32.19 87.49 42.51 92.98 48.11 87.49 53.49 87.49 63.81 76.52 63.81 72 58.01 67.48 63.81"/><rect class="cls-3" x="63.67" y="50.25" width="6.26" height="6.26" rx="0.74" ry="0.74" transform="translate(-18.18 62.87) rotate(-45)"/><rect class="cls-3" x="74.07" y="50.25" width="6.26" height="6.26" rx="0.74" ry="0.74" transform="translate(-15.13 70.22) rotate(-45)"/><rect class="cls-3" x="63.67" y="39.5" width="6.26" height="6.26" rx="0.74" ry="0.74" transform="translate(-10.57 59.72) rotate(-45)"/><rect class="cls-3" x="74.07" y="39.5" width="6.26" height="6.26" rx="0.74" ry="0.74" transform="translate(-7.53 67.07) rotate(-45)"/><path class="cls-4" d="M30.19,5.7a.87.87,0,0,1,1.44-.59c2.76,2.41,8.22,8.18,8.22,16.05,0,10.52-18,32.33-3.76,47.37a30.63,30.63,0,0,1,9.77,22.56c-3.76-5.26-14.29-3-21.8-3S6,84.32,6,76.8H9s-6-3-6-16.54A17.34,17.34,0,0,0,7.24,61,.75.75,0,0,0,8,60.05a29.75,29.75,0,0,1,8.52-27.61c-6.77-4.52-1.51-18.8,9-14.29a5.88,5.88,0,0,1,1.5-3.76C28.26,13.19,29.94,8.64,30.19,5.7Z"/><path class="cls-5" d="M23.3,24.17a3,3,0,1,1,0,6S18,30.93,18,24.92c0-5.27,5.26-6,7.52-6s11.28,4.51,5.26,15S15,60.26,27.81,70.79s17.3,15,18.05,20.3c0,0-2.25-10.53-17.29-10.53-7.52,0-15.79-1.5-19.55-3.76"/><path class="cls-5" d="M30.19,5.7s7.4,14.71,1.38,26.74"/><path class="cls-5" d="M45.86,91.09s-2.25-10.53-18.8-15-19-16-19-16"/><path class="cls-4" d="M113.81,5.7a.87.87,0,0,0-1.44-.59c-2.76,2.41-8.22,8.18-8.22,16.05,0,10.52,18,32.33,3.76,47.37a30.63,30.63,0,0,0-9.77,22.56c3.76-5.26,14.29-3,21.8-3S138,84.32,138,76.8h-3s6-3,6-16.54a17.34,17.34,0,0,1-4.24.71.75.75,0,0,1-.78-.92,29.75,29.75,0,0,0-8.52-27.61c6.77-4.52,1.51-18.8-9-14.29a5.88,5.88,0,0,0-1.5-3.76C115.74,13.19,114.06,8.64,113.81,5.7Z"/><path class="cls-5" d="M120.7,24.17a3,3,0,1,0,0,6s5.26.75,5.26-5.26c0-5.27-5.26-6-7.52-6s-11.28,4.51-5.26,15,15.79,26.32,3,36.85-17.3,15-18,20.3c0,0,2.25-10.53,17.29-10.53,7.52,0,15.79-1.5,19.55-3.76"/><path class="cls-5" d="M113.81,5.7s-7.4,14.71-1.38,26.74"/><path class="cls-5" d="M98.14,91.09s2.25-10.53,18.8-15,19-16,19-16"/></svg>