<svg id="Layer_1" data-name="Layer 1" xmlns="http://www.w3.org/2000/svg" viewBox="0 0 96 96"><defs><style>.cls-1{fill:gray;}.cls-1,.cls-2,.cls-3{stroke:#4d4d4d;stroke-linecap:round;stroke-linejoin:round;}.cls-2,.cls-4{fill:#b3b3b3;}.cls-3{fill:#333;}</style></defs><title>2</title><rect class="cls-1" x="22.3" y="22.3" width="51.4" height="51.4" rx="0.83" ry="0.83" transform="translate(-19.88 48) rotate(-45)"/><path class="cls-2" d="M69.43,41.39,54.61,26.57l-6-6a.82.82,0,0,0-1.16,0l-6,6L26.57,41.39l-6,6a.82.82,0,0,0,0,1.16l6,6L41.39,69.43l6,6a.82.82,0,0,0,1.16,0l6-6L69.43,54.61l6-6a.82.82,0,0,0,0-1.16ZM51.24,66.06,48,62.82l-3.24,3.24a.83.83,0,0,1-1.17,0L29.36,51.82,33.18,48l-3.82-3.82L43.59,29.94a.83.83,0,0,1,1.17,0L48,33.18l3.24-3.24a.83.83,0,0,1,1.17,0L66.06,43.59a.83.83,0,0,1,0,1.17L62.82,48l3.24,3.24a.83.83,0,0,1,0,1.17L52.41,66.06A.83.83,0,0,1,51.24,66.06Z"/><path class="cls-3" d="M51.41,66.06l-3.24-3.24-3.24,3.24a.83.83,0,0,1-1.17,0L29.53,51.82,33.35,48l-3.82-3.82L43.76,29.94a.83.83,0,0,1,1.17,0l3.24,3.24,3.24-3.24a.83.83,0,0,1,1.17,0L66.23,43.59a.83.83,0,0,1,0,1.17L63,48l3.24,3.24a.83.83,0,0,1,0,1.17L52.58,66.06A.83.83,0,0,1,51.41,66.06Z"/><path class="cls-4" d="M41.39,42.5l.3-2.77a.4.4,0,0,1,.35-.36c1.38-.18,6.93-.82,9.37.15,2.8,1.12,4.48,4,2,6.61s-4.2,4.48-4.2,5v.6a.4.4,0,0,1-.4.41H44.72a.41.41,0,0,1-.41-.37,5,5,0,0,1,1-3.83c1.46-1.45,4.2-3.58,2.52-4.81-1.2-.88-4.63-.39-6-.16A.42.42,0,0,1,41.39,42.5Z"/><rect class="cls-4" x="44.47" y="53.5" width="4.59" height="3.5" rx="0.5" ry="0.5"/></svg>