<svg id="Layer_1" data-name="Layer 1" xmlns="http://www.w3.org/2000/svg" viewBox="0 0 144 96"><defs><style>.cls-1{fill:#7395b0;}.cls-2{fill:#edf2f6;}.cls-3{fill:#dce4fa;}.cls-4{fill:#323e93;}.cls-5{fill:none;}.cls-5,.cls-6,.cls-7{stroke:#4d4d4d;stroke-linecap:round;stroke-linejoin:round;}.cls-6{fill:#e2c227;}.cls-7{fill:#93278f;}.cls-8{fill:#c9a144;}.cls-9{fill:#e2b459;}</style></defs><title>8</title><path class="cls-1" d="M59.51,66.32c6.23.62,5,4.36,5,4.36s-5,7.48-12.47,7.48c0,0-23.68,0-23.68-19.94s15-22.44,15-22.44l.15,0A17,17,0,0,0,45.18,47h5v6.23A17,17,0,0,0,45.8,64.45C45.8,71.3,55.15,71.3,59.51,66.32ZM42.62,49.43a2.21,2.21,0,0,0-4.22-1.12c-.26,1-1.24,5.23-.08,5.55S42.35,50.43,42.62,49.43Z"/><path class="cls-2" d="M17.73,48.87c0-.62,0-1.24,0-1.87a15.68,15.68,0,0,0,3.78-2.44,19.43,19.43,0,0,0,5.83-8.69,17.63,17.63,0,0,0,.72-3.15,18.85,18.85,0,0,0-.36-6.91A23,23,0,0,1,29.65,24c.56-.46,1.24-1,2-1.6a42,42,0,0,1,4.19-2.73c.77-.44,1.58-.88,2.46-1.31a44.66,44.66,0,0,1,4.35-1.89A50.78,50.78,0,0,1,62,13.35S45.88,22.94,43.46,35.81l-.15,0s-15,2.5-15,22.44S52,78.16,52,78.16V88.75a50.47,50.47,0,0,1-13.08-5,46.94,46.94,0,0,1-6.07-3.91,42.94,42.94,0,0,1-5.52-5,37.57,37.57,0,0,1-3.77-4.9A35.92,35.92,0,0,1,19,59.44c-.16-.62-.31-1.25-.44-1.89A42.92,42.92,0,0,1,17.73,48.87Z"/><path class="cls-3" d="M42.69,16.46h0a44.66,44.66,0,0,0-4.35,1.89l0,0c-3-9.71,4-14.1,4.35-14.32h0C42.59,4.26,40.24,10.36,42.69,16.46Z"/><path class="cls-4" d="M39,83.75v0S35.21,90,25.86,90,11.53,82.52,9.66,76.91c0,0,6.23,8.73,23.05,3.12l.17-.19A46.94,46.94,0,0,0,39,83.75Z"/><path class="cls-4" d="M32.71,12.1c1.83-6.08,9.58-8,10-8.09-.36.22-7.38,4.61-4.35,14.32l0,0c-.88.43-1.69.87-2.46,1.31l-.05-.09a27.21,27.21,0,0,1-3.22-7.45Z"/><path class="cls-3" d="M35.83,19.58l.05.09a42,42,0,0,0-4.19,2.73l-.22-.33c-6.71-10.37.31-16.56.61-16.82h0a17,17,0,0,0,.52,6.88A27.21,27.21,0,0,0,35.83,19.58Z"/><path class="cls-3" d="M32.88,79.84l-.17.19c-16.82,5.61-23-3.12-23-3.12a29.16,29.16,0,0,0,10,.18,29.85,29.85,0,0,0,7.46-2l.25-.23A42.94,42.94,0,0,0,32.88,79.84Z"/><path class="cls-4" d="M31.47,22.07l.22.33c-.8.59-1.48,1.14-2,1.6l0-.06a16.5,16.5,0,0,1-8.1-8.1C23.32,7.93,31.69,5.36,32.08,5.25,31.78,5.51,24.76,11.7,31.47,22.07Z"/><path class="cls-3" d="M29.6,23.94l0,.06a23,23,0,0,0-1.92,1.81,18.85,18.85,0,0,1,.36,6.91l-.36,0C14.42,23,19.9,12.73,20.23,12.13l0,0a15.15,15.15,0,0,0,1.25,3.74A16.5,16.5,0,0,0,29.6,23.94Z"/><path class="cls-4" d="M27.73,32.67l.36,0a17.63,17.63,0,0,1-.72,3.15l-.26-.09a27.26,27.26,0,0,1-8.1-2.5c-12.44-6.57.59-20.5,1.22-21.15C19.9,12.73,14.42,23,27.73,32.67Z"/><path class="cls-3" d="M27.11,35.78l.26.09a19.43,19.43,0,0,1-5.83,8.69l0-.05c-10.6-6.23-10.6-18.7-10.6-18.7A14.47,14.47,0,0,0,19,33.29h0A27.26,27.26,0,0,0,27.11,35.78Z"/><path class="cls-4" d="M27.36,74.81l-.25.23a29.85,29.85,0,0,1-7.46,2l0-.18c-11.22,0-13.71-9.34-14.34-14.33,0,0,5.61,7.48,18.08,7.48l.22-.15A37.57,37.57,0,0,0,27.36,74.81Z"/><path class="cls-3" d="M23.59,69.91l-.22.15c-12.47,0-18.08-7.48-18.08-7.48a9.59,9.59,0,0,0,5,.82,15,15,0,0,0,8.08-3.94l.65,0A35.92,35.92,0,0,0,23.59,69.91Z"/><path class="cls-4" d="M21.5,44.51l0,.05A15.68,15.68,0,0,1,17.76,47c0,.63,0,1.25,0,1.87-.46,0-5.44-.14-8.87-2.9L9,45.75A20.22,20.22,0,0,1,10.9,25.81S10.9,38.28,21.5,44.51Z"/><path class="cls-4" d="M19,59.44l-.65,0A15,15,0,0,1,10.3,63.4l0-.2C0,56.58,5.52,42.39,5.9,41.44c-.21.76-2.46,10.18,12.48,16.15l.21,0C18.72,58.19,18.87,58.82,19,59.44Z"/><path class="cls-3" d="M18.59,57.55l-.21,0C3.44,51.62,5.69,42.2,5.9,41.44l0,0A8.36,8.36,0,0,0,8.86,46c3.43,2.76,8.41,2.89,8.87,2.9A42.92,42.92,0,0,0,18.59,57.55Z"/><path class="cls-5" d="M42.69,16.47A50.78,50.78,0,0,1,62,13.35S45.88,22.94,43.46,35.81A17,17,0,0,0,45.18,47h5v6.23A17,17,0,0,0,45.8,64.45c0,6.85,9.35,6.85,13.71,1.87,6.23.62,5,4.36,5,4.36s-5,7.48-12.47,7.48V88.75a50.47,50.47,0,0,1-13.08-5,46.94,46.94,0,0,1-6.07-3.91,42.94,42.94,0,0,1-5.52-5,37.57,37.57,0,0,1-3.77-4.9A35.92,35.92,0,0,1,19,59.44c-.16-.62-.31-1.25-.44-1.89a42.92,42.92,0,0,1-.86-8.68c0-.62,0-1.24,0-1.87a15.68,15.68,0,0,0,3.78-2.44,19.43,19.43,0,0,0,5.83-8.69,17.63,17.63,0,0,0,.72-3.15,18.85,18.85,0,0,0-.36-6.91A23,23,0,0,1,29.65,24c.56-.46,1.24-1,2-1.6a42,42,0,0,1,4.19-2.73c.77-.44,1.58-.88,2.46-1.31A44.66,44.66,0,0,1,42.69,16.47Z"/><path class="cls-5" d="M42.69,4h0c-.38.08-8.13,2-10,8.09"/><path class="cls-5" d="M42.69,16.46c-2.45-6.1-.1-12.2,0-12.45"/><path class="cls-5" d="M32.08,5.25c-.39.11-8.76,2.68-10.58,10.59"/><path class="cls-5" d="M35.83,19.58a27.21,27.21,0,0,1-3.22-7.45,17,17,0,0,1-.52-6.88"/><path class="cls-5" d="M20.23,12.13c-.33.6-5.81,10.86,7.5,20.54"/><path class="cls-5" d="M29.6,23.94a16.5,16.5,0,0,1-8.1-8.1,15.15,15.15,0,0,1-1.25-3.74"/><path class="cls-5" d="M42.69,4h0c-.36.22-7.38,4.61-4.35,14.32"/><path class="cls-5" d="M32.09,5.25h0c-.3.26-7.32,6.45-.61,16.82"/><path class="cls-5" d="M20.25,12.1l0,0C19.6,12.78,6.57,26.71,19,33.28a27.26,27.26,0,0,0,8.1,2.5"/><path class="cls-5" d="M21.5,44.51c-10.6-6.23-10.6-18.7-10.6-18.7A14.47,14.47,0,0,0,19,33.29"/><path class="cls-5" d="M27.11,75a29.85,29.85,0,0,1-7.46,2,29.16,29.16,0,0,1-10-.18C11.53,82.52,16.51,90,25.86,90S39,83.77,39,83.77"/><path class="cls-5" d="M18.38,59.46A15,15,0,0,1,10.3,63.4a9.59,9.59,0,0,1-5-.82c.63,5,3.12,14.33,14.34,14.33"/><path class="cls-5" d="M5.29,62.58s5.61,7.48,18.08,7.48"/><path class="cls-5" d="M9.66,76.91S15.89,85.64,32.71,80"/><path class="cls-5" d="M5.9,41.44c-.21.76-2.46,10.18,12.48,16.15"/><path class="cls-5" d="M17.76,48.87h0c-.46,0-5.44-.14-8.87-2.9a8.36,8.36,0,0,1-2.94-4.58"/><path class="cls-5" d="M5.92,41.39l0,0c-.38,1-5.86,15.14,4.38,21.76"/><path class="cls-5" d="M10.9,25.81A20.22,20.22,0,0,0,9,45.75"/><path class="cls-5" d="M52,78.16s-23.68,0-23.68-19.94,15-22.44,15-22.44"/><path class="cls-5" d="M42.62,49.43c-.27,1-3.13,4.74-4.3,4.43s-.18-4.55.08-5.55a2.21,2.21,0,0,1,4.22,1.12Z"/><path class="cls-1" d="M84.38,66.32c-6.23.62-5,4.36-5,4.36s5,7.48,12.46,7.48c0,0,23.68,0,23.68-19.94s-15-22.44-15-22.44l-.16,0A16.92,16.92,0,0,1,98.72,47h-5v6.23a17,17,0,0,1,4.36,11.22C98.09,71.3,88.75,71.3,84.38,66.32Zm16.9-16.89a2.21,2.21,0,0,1,4.22-1.12c.27,1,1.24,5.23.07,5.55S101.55,50.43,101.28,49.43Z"/><path class="cls-2" d="M126.17,48.87c0-.62,0-1.24,0-1.87a15.73,15.73,0,0,1-3.79-2.44,19.51,19.51,0,0,1-5.83-8.69,18.54,18.54,0,0,1-.72-3.15,18.86,18.86,0,0,1,.37-6.91A22.43,22.43,0,0,0,114.24,24c-.55-.46-1.23-1-2-1.6A43.23,43.23,0,0,0,108,19.67c-.77-.44-1.59-.88-2.46-1.31a46,46,0,0,0-4.36-1.89,50.71,50.71,0,0,0-19.31-3.12S98,22.94,100.43,35.81l.16,0s15,2.5,15,22.44S91.86,78.16,91.86,78.16V88.75a50.5,50.5,0,0,0,13.08-5A49.79,49.79,0,0,0,111,79.84a41.51,41.51,0,0,0,5.5-5,36.72,36.72,0,0,0,3.77-4.9,35.93,35.93,0,0,0,4.57-10.47c.16-.62.3-1.25.43-1.89A42.9,42.9,0,0,0,126.17,48.87Z"/><path class="cls-3" d="M101.21,16.46h0a46,46,0,0,1,4.36,1.89v0c3-9.71-4-14.1-4.35-14.32h0C101.31,4.26,103.65,10.36,101.21,16.46Z"/><path class="cls-4" d="M104.94,83.76h0S108.69,90,118,90s14.33-7.48,16.2-13.09c0,0-6.23,8.73-23.06,3.12l-.15-.19A49.79,49.79,0,0,1,104.94,83.76Z"/><path class="cls-4" d="M111.18,12.1c-1.83-6.08-9.58-8-10-8.09.37.22,7.39,4.61,4.35,14.32v0c.87.43,1.69.87,2.46,1.31l0-.09a27,27,0,0,0,3.23-7.45Z"/><path class="cls-3" d="M108.06,19.58l0,.09a43.23,43.23,0,0,1,4.19,2.73l.22-.33c6.7-10.37-.31-16.56-.61-16.82h0a16.91,16.91,0,0,1-.51,6.88A27,27,0,0,1,108.06,19.58Z"/><path class="cls-3" d="M111,79.84l.15.19c16.83,5.61,23.06-3.12,23.06-3.12a29.22,29.22,0,0,1-10,.18,29.85,29.85,0,0,1-7.45-2l-.26-.23A41.51,41.51,0,0,1,111,79.84Z"/><path class="cls-4" d="M112.43,22.07l-.22.33c.8.59,1.48,1.14,2,1.6l.06-.06a16.52,16.52,0,0,0,8.1-8.11c-1.83-7.9-10.2-10.47-10.58-10.58C112.12,5.51,119.13,11.7,112.43,22.07Z"/><path class="cls-3" d="M122.4,15.83a16.52,16.52,0,0,1-8.1,8.11l-.06.06a22.43,22.43,0,0,1,1.93,1.81,18.86,18.86,0,0,0-.37,6.91l.37,0c13.3-9.68,7.83-19.94,7.49-20.54,0,0,0,0,0,0A14.77,14.77,0,0,1,122.4,15.83Z"/><path class="cls-4" d="M116.17,32.67l-.37,0a18.54,18.54,0,0,0,.72,3.15l.27-.09a27.28,27.28,0,0,0,8.09-2.5c12.44-6.57-.59-20.5-1.22-21.15C124,12.73,129.47,23,116.17,32.67Z"/><path class="cls-3" d="M116.79,35.78l-.27.09a19.51,19.51,0,0,0,5.83,8.69l.05-.05C133,38.28,133,25.81,133,25.81a14.47,14.47,0,0,1-8.1,7.48h0A27.28,27.28,0,0,1,116.79,35.78Z"/><path class="cls-4" d="M116.53,74.81l.26.23a29.85,29.85,0,0,0,7.45,2l0-.18c11.22,0,13.71-9.34,14.33-14.33,0,0-5.61,7.48-18.07,7.48l-.23-.15A36.72,36.72,0,0,1,116.53,74.81Z"/><path class="cls-3" d="M120.3,69.91l.23.15c12.46,0,18.07-7.48,18.07-7.48a9.59,9.59,0,0,1-5,.82,15,15,0,0,1-8.08-3.94l-.64,0A35.93,35.93,0,0,1,120.3,69.91Z"/><path class="cls-4" d="M122.4,44.51l-.05.05A15.73,15.73,0,0,0,126.14,47c0,.63,0,1.25,0,1.87.46,0,5.44-.14,8.87-2.9l-.18-.22A20.19,20.19,0,0,0,133,25.81S133,38.28,122.4,44.51Z"/><path class="cls-4" d="M124.87,59.44l.64,0a15,15,0,0,0,8.08,3.94l0-.2c10.23-6.62,4.76-20.81,4.38-21.76.2.76,2.46,10.18-12.49,16.15l-.21,0C125.17,58.19,125,58.82,124.87,59.44Z"/><path class="cls-3" d="M125.3,57.55l.21,0c15-6,12.69-15.39,12.49-16.15a.1.1,0,0,1,0,0A8.41,8.41,0,0,1,135,46c-3.43,2.76-8.41,2.89-8.87,2.9A42.9,42.9,0,0,1,125.3,57.55Z"/><path class="cls-5" d="M101.2,16.47a50.71,50.71,0,0,0-19.31-3.12S98,22.94,100.43,35.81A16.92,16.92,0,0,1,98.72,47h-5v6.23a17,17,0,0,1,4.36,11.22c0,6.85-9.34,6.85-13.71,1.87-6.23.62-5,4.36-5,4.36s5,7.48,12.46,7.48V88.75a50.5,50.5,0,0,0,13.08-5A49.79,49.79,0,0,0,111,79.84a41.51,41.51,0,0,0,5.5-5,36.72,36.72,0,0,0,3.77-4.9,35.93,35.93,0,0,0,4.57-10.47c.16-.62.3-1.25.43-1.89a42.9,42.9,0,0,0,.87-8.68c0-.62,0-1.24,0-1.87a15.73,15.73,0,0,1-3.79-2.44,19.51,19.51,0,0,1-5.83-8.69,18.54,18.54,0,0,1-.72-3.15,18.86,18.86,0,0,1,.37-6.91A22.43,22.43,0,0,0,114.24,24c-.55-.46-1.23-1-2-1.6A43.23,43.23,0,0,0,108,19.67c-.77-.44-1.59-.88-2.46-1.31A46,46,0,0,0,101.2,16.47Z"/><path class="cls-5" d="M101.21,4h0c.38.08,8.13,2,10,8.09"/><path class="cls-5" d="M101.21,16.46c2.44-6.1.1-12.2,0-12.45"/><path class="cls-5" d="M111.82,5.25c.38.11,8.75,2.68,10.58,10.58h0"/><path class="cls-5" d="M108.06,19.58a27,27,0,0,0,3.23-7.45,16.91,16.91,0,0,0,.51-6.88"/><path class="cls-5" d="M123.66,12.13c.34.6,5.81,10.86-7.49,20.54"/><path class="cls-5" d="M114.3,23.94a16.52,16.52,0,0,0,8.1-8.11,14.77,14.77,0,0,0,1.24-3.72"/><path class="cls-5" d="M101.21,4h0c.37.22,7.39,4.61,4.35,14.32"/><path class="cls-5" d="M111.8,5.25h0c.3.26,7.31,6.45.61,16.82"/><path class="cls-5" d="M123.64,12.1h0s0,0,0,0c.63.65,13.66,14.58,1.22,21.15a27.28,27.28,0,0,1-8.09,2.5"/><path class="cls-5" d="M122.4,44.51C133,38.28,133,25.81,133,25.81a14.47,14.47,0,0,1-8.1,7.48"/><path class="cls-5" d="M116.79,75a29.85,29.85,0,0,0,7.45,2,29.22,29.22,0,0,0,10-.18C132.37,82.52,127.38,90,118,90S105,83.77,105,83.77"/><path class="cls-5" d="M125.51,59.46a15,15,0,0,0,8.08,3.94,9.59,9.59,0,0,0,5-.82c-.62,5-3.11,14.33-14.33,14.33"/><path class="cls-5" d="M138.6,62.58s-5.61,7.48-18.07,7.48"/><path class="cls-5" d="M134.24,76.91S128,85.64,111.18,80"/><path class="cls-5" d="M138,41.44c.2.76,2.46,10.18-12.49,16.15"/><path class="cls-5" d="M126.14,48.87h0c.46,0,5.44-.14,8.87-2.9A8.41,8.41,0,0,0,138,41.39"/><path class="cls-5" d="M138,41.39a.1.1,0,0,0,0,0c.38,1,5.85,15.14-4.38,21.76"/><path class="cls-5" d="M133,25.81a20.19,20.19,0,0,1,1.87,19.94"/><path class="cls-5" d="M91.86,78.16s23.68,0,23.68-19.94-15-22.44-15-22.44"/><path class="cls-5" d="M101.28,49.43c.27,1,3.13,4.74,4.29,4.43s.2-4.55-.07-5.55a2.21,2.21,0,0,0-4.22,1.12Z"/><polygon class="cls-6" points="37.38 47.79 52.22 39.34 48.51 23.89 63.34 27.6 72 14 80.66 27.6 95.49 23.89 91.78 39.34 106.62 47.79 91.78 56.66 95.49 72.11 80.66 68.4 72 82 63.34 68.4 48.51 72.11 52.22 56.66 37.38 47.79"/><polyline class="cls-6" points="63.34 27.6 67.67 33.16 72 38.73 80.66 27.6"/><polyline class="cls-6" points="63.34 68.4 72 57.27 80.66 68.4"/><polygon class="cls-7" points="67.67 63.15 57.16 63.15 57.16 53.26 51.91 48.1 57.16 42.74 57.16 32.85 67.06 32.85 72 39.04 76.94 32.85 86.84 32.85 86.84 42.74 92.09 48.1 86.84 53.26 86.84 63.15 76.33 63.15 72 57.58 67.67 63.15"/><polygon class="cls-8" points="92.54 48 79.61 51.8 72 48 92.54 48"/><polygon class="cls-9" points="92.54 48 72 48 79.61 44.2 92.54 48"/><polygon class="cls-8" points="84.17 36.59 79.61 44.2 72 48 76.56 39.63 84.17 36.59"/><polygon class="cls-8" points="79.61 51.8 84.17 59.41 76.56 56.37 72 48 79.61 51.8"/><polygon class="cls-9" points="72 24.41 76.56 39.63 72 48 72 24.41"/><polygon class="cls-9" points="72 48 76.56 56.37 72 71.59 72 48"/><polygon class="cls-8" points="72 48 72 71.59 67.43 56.37 72 48"/><polygon class="cls-8" points="72 24.41 72 48 67.43 39.63 72 24.41"/><polygon class="cls-8" points="67.43 39.63 72 48 64.39 44.2 59.82 36.59 67.43 39.63"/><polygon class="cls-8" points="72 48 67.43 56.37 59.82 59.41 64.39 51.8 72 48"/><polygon class="cls-9" points="72 48 64.39 51.8 51.45 48 72 48"/><polygon class="cls-8" points="72 48 51.45 48 64.39 44.2 72 48"/><polyline class="cls-5" points="76.56 39.63 72 24.41 67.43 39.63"/><polyline class="cls-5" points="76.56 56.37 72 71.59 67.43 56.37"/><polyline class="cls-5" points="64.39 44.2 51.45 48 64.39 51.8"/><polygon class="cls-5" points="64.39 44.2 59.82 36.59 67.43 39.63 72 48 64.39 44.2"/><polyline class="cls-5" points="79.61 44.2 92.54 48 79.61 51.8"/><polygon class="cls-5" points="79.61 44.2 84.17 36.59 76.56 39.63 72 48 79.61 44.2"/><polygon class="cls-5" points="64.39 51.8 59.82 59.41 67.43 56.37 72 48 64.39 51.8"/><polygon class="cls-5" points="79.61 51.8 84.17 59.41 76.56 56.37 72 48 79.61 51.8"/><polyline class="cls-5" points="51.45 48 72 48 92.54 48"/><polyline class="cls-5" points="72 24.41 72 48 72 71.59"/></svg>