<svg id="Layer_1" data-name="Layer 1" xmlns="http://www.w3.org/2000/svg" viewBox="0 0 144 96"><defs><style>.cls-1,.cls-2{fill:#00a99d;}.cls-1,.cls-2,.cls-3,.cls-5{stroke:#4d4d4d;}.cls-1{stroke-miterlimit:10;}.cls-2,.cls-3,.cls-5{stroke-linecap:round;stroke-linejoin:round;}.cls-3{fill:#333;}.cls-4,.cls-5{fill:#b3b3b3;}</style></defs><title>5</title><rect class="cls-1" x="46.3" y="22.3" width="51.4" height="51.4" rx="0.83" ry="0.83" transform="translate(-12.85 64.97) rotate(-45)"/><rect class="cls-2" x="46.3" y="22.3" width="51.4" height="51.4" rx="0.83" ry="0.83" transform="translate(-12.85 64.97) rotate(-45)"/><path class="cls-1" d="M93.43,41.39,78.61,26.57l-6-6a.82.82,0,0,0-1.16,0l-6,6L50.57,41.39l-6,6a.82.82,0,0,0,0,1.16l6,6L65.39,69.43l6,6a.82.82,0,0,0,1.16,0l6-6L93.43,54.61l6-6a.82.82,0,0,0,0-1.16ZM75.24,66.06,72,62.82l-3.24,3.24a.83.83,0,0,1-1.17,0L53.36,51.82,57.18,48l-3.82-3.82L67.59,29.94a.83.83,0,0,1,1.17,0L72,33.18l3.24-3.24a.83.83,0,0,1,1.17,0L90.06,43.59a.83.83,0,0,1,0,1.17L86.82,48l3.24,3.24a.83.83,0,0,1,0,1.17L76.41,66.06A.83.83,0,0,1,75.24,66.06Z"/><path class="cls-3" d="M75.21,65.89,72,62.68l-3.21,3.21a.82.82,0,0,1-1.16,0l-14.1-14.1L57.32,48l-3.79-3.79,14.1-14.1a.82.82,0,0,1,1.16,0L72,33.32l3.21-3.21a.82.82,0,0,1,1.16,0L89.89,43.63a.82.82,0,0,1,0,1.16L86.68,48l3.21,3.21a.82.82,0,0,1,0,1.16L76.37,65.89A.82.82,0,0,1,75.21,65.89Z"/><rect class="cls-4" x="61.64" y="46.1" width="6.42" height="6.42" rx="0.76" ry="0.76" transform="translate(-15.87 60.3) rotate(-45)"/><rect class="cls-4" x="68.79" y="38.66" width="6.42" height="6.42" rx="0.76" ry="0.76" transform="translate(-8.52 63.18) rotate(-45)"/><rect class="cls-4" x="75.93" y="46.1" width="6.42" height="6.42" rx="0.76" ry="0.76" transform="translate(-11.69 70.41) rotate(-45)"/><polygon class="cls-5" points="48 68 28 48 48 28 55.66 28 35.66 48 55.66 68 48 68"/><polygon class="cls-5" points="28.59 68 8.59 48 28.59 28 36.25 28 16.25 48 36.25 68 28.59 68"/><polygon class="cls-5" points="30.71 62.46 16.25 48 30.71 33.54 36.25 33.54 21.79 48 36.25 62.46 30.71 62.46"/><polygon class="cls-5" points="115.59 68 135.59 48 115.59 28 107.93 28 127.93 48 107.93 68 115.59 68"/><polygon class="cls-5" points="113.47 62.46 127.93 48 113.47 33.54 107.93 33.54 122.39 48 107.93 62.46 113.47 62.46"/><polygon class="cls-5" points="96 68 116 48 96 28 88.33 28 108.33 48 88.5 67.89 96 68"/></svg>