<svg id="Layer_1" data-name="Layer 1" xmlns="http://www.w3.org/2000/svg" viewBox="0 0 96 96"><defs><style>.cls-1{fill:#9c7e5d;}.cls-1,.cls-2,.cls-3{stroke:#4d4d4d;}.cls-1,.cls-4{stroke-miterlimit:10;}.cls-2{fill:#b3b3b3;}.cls-2,.cls-3{stroke-linecap:round;stroke-linejoin:round;}.cls-3{fill:#333;}.cls-4{fill:#f29e39;stroke:#333;}</style></defs><title>4</title><rect class="cls-1" x="22.3" y="22.3" width="51.4" height="51.4" rx="0.83" ry="0.83" transform="translate(-19.88 48) rotate(-45)"/><rect class="cls-2" x="22.3" y="22.3" width="51.4" height="51.4" rx="0.83" ry="0.83" transform="translate(-19.88 48) rotate(-45)"/><path class="cls-1" d="M69.43,41.39,54.61,26.57l-6-6a.82.82,0,0,0-1.16,0l-6,6L26.57,41.39l-6,6a.82.82,0,0,0,0,1.16l6,6L41.39,69.43l6,6a.82.82,0,0,0,1.16,0l6-6L69.43,54.61l6-6a.82.82,0,0,0,0-1.16ZM51.24,66.06,48,62.82l-3.24,3.24a.83.83,0,0,1-1.17,0L29.36,51.82,33.18,48l-3.82-3.82L43.59,29.94a.83.83,0,0,1,1.17,0L48,33.18l3.24-3.24a.83.83,0,0,1,1.17,0L66.06,43.59a.83.83,0,0,1,0,1.17L62.82,48l3.24,3.24a.83.83,0,0,1,0,1.17L52.41,66.06A.83.83,0,0,1,51.24,66.06Z"/><path class="cls-3" d="M51.21,65.89,48,62.68l-3.21,3.21a.82.82,0,0,1-1.16,0l-14.1-14.1L33.32,48l-3.79-3.79,14.1-14.1a.82.82,0,0,1,1.16,0L48,33.32l3.21-3.21a.82.82,0,0,1,1.16,0L65.89,43.63a.82.82,0,0,1,0,1.16L62.68,48l3.21,3.21a.82.82,0,0,1,0,1.16L52.37,65.89A.82.82,0,0,1,51.21,65.89Z"/><rect class="cls-4" x="39.21" y="44.7" width="6.6" height="6.6" rx="0.78" ry="0.78" transform="translate(-21.49 44.12) rotate(-45)"/><rect class="cls-4" x="50.19" y="44.7" width="6.6" height="6.6" rx="0.78" ry="0.78" transform="translate(-18.27 51.88) rotate(-45)"/><path class="cls-2" d="M28,31.14v-3.9s-5.19.65-8.43-3.24H15.68S6,29.19,4,37c0,3.89,3.89,6.49,3.89,11S4,55.14,4,59c2,7.78,11.68,13,11.68,13h3.89C22.81,68.11,28,68.76,28,68.76v-3.9a16.86,16.86,0,0,1,0-33.72Z"/><path class="cls-2" d="M68,31.14v-3.9s5.19.65,8.43-3.24h3.89S90.05,29.19,92,37c0,3.89-3.89,6.49-3.89,11S92,55.14,92,59c-2,7.78-11.68,13-11.68,13H76.43C73.19,68.11,68,68.76,68,68.76v-3.9a16.86,16.86,0,0,0,0-33.72Z"/></svg>