<svg id="Layer_1" data-name="Layer 1" xmlns="http://www.w3.org/2000/svg" xmlns:xlink="http://www.w3.org/1999/xlink" viewBox="0 0 144 144"><defs><style>.cls-1{fill:#323e93;}.cls-2{fill:#dce4fa;}.cls-10,.cls-3{fill:none;stroke:#4d4d4d;}.cls-3{stroke-linecap:round;stroke-linejoin:round;}.cls-11,.cls-4{fill:#c9a144;}.cls-5{fill:#1b1e1b;}.cls-6{fill:url(#radial-gradient);}.cls-7{fill:#42352e;}.cls-8{fill:#040200;}.cls-9{fill:#0b0000;}.cls-10,.cls-11{stroke-miterlimit:10;}.cls-11{stroke:#333;}</style><radialGradient id="radial-gradient" cx="72.55" cy="67.84" r="21.97" gradientUnits="userSpaceOnUse"><stop offset="0" stop-color="#ff0"/><stop offset="0.01" stop-color="#fdfc00"/><stop offset="0.16" stop-color="#d9c108"/><stop offset="0.32" stop-color="#ba8d0f"/><stop offset="0.47" stop-color="#a06315"/><stop offset="0.62" stop-color="#8c4219"/><stop offset="0.76" stop-color="#7e2b1c"/><stop offset="0.89" stop-color="#751d1e"/><stop offset="1" stop-color="#72181f"/></radialGradient></defs><title>10</title><path class="cls-1" d="M51.38,107.09s3.42,2.56,0,5.13c-2,1.46-5.14,0-6-1.71a3,3,0,0,0-2.57-1.71c-2.57,0-5.14,7.7-17.12,7.7s-15.4-9.41-15.4-9.41,5.13,5.13,15.4,1.71,13.7-5.14,18-3.42c0,0,3.43,4.27,6.85,3.42,1.27-.32,1.36-.87.72-1.65Z"/><path class="cls-2" d="M39.76,100l2.25-.7c.53.61,1.08,1.21,1.66,1.82,3.24,2.68,6.47,4.7,7.57,6.05.64.78.55,1.33-.72,1.65-3.42.85-6.85-3.42-6.85-3.42-4.27-1.72-7.7,0-18,3.42s-15.4-1.71-15.4-1.71,3.37-.57,6.9-1.53A22.92,22.92,0,0,0,24,102.81c3.1-2.33,10.4-4.65,14.93-3.16A5.24,5.24,0,0,1,39.76,100Z"/><path class="cls-2" d="M12.88,74.47a16,16,0,0,0,1.7.1,35.09,35.09,0,0,1,12.66,2.91l.17-.35S26.56,70.29,18,66,9.44,49.75,9.44,49.75a30.11,30.11,0,0,0,3.4,4.3,15.83,15.83,0,0,0,6,4.26c3.3,1.1,6.61,4,8.55,5.89a27.13,27.13,0,0,0-7.7-14.45C12.87,42.9,18,35.2,18,35.2a8.09,8.09,0,0,0,3.42,6c.45.34.94.73,1.45,1.17,2.88,2.49,6.55,6.56,7.64,10.89l.33-.08s2.57-6.84-.86-12.83a11.1,11.1,0,0,1-1.52-5.55A11,11,0,0,1,30,29.23v0a12.47,12.47,0,0,0,2.3,6.15,17.21,17.21,0,0,0,1.13,1.55,22.57,22.57,0,0,1,3.9,7.84l.37-.13c3.43-6.85-.85-13.7,3.43-17.12,0,0,0,6,1.71,9.41S43.67,47.18,37.68,54C31.88,60.66,25.27,80.16,42,99.28l-2.25.7a5.24,5.24,0,0,0-.84-.33l.25-.72C36.92,95.17,27.06,96,18,96.82c-9.41.85-13.69-4.28-13.69-4.28a24,24,0,0,0,10.27-.86l2.57-.84c4.27-1.35,9.49-2.65,13.63-1.53l.06-.19c-2.57-4.28-6.85-6-14.55-7.71S4.31,72,4.31,72A27.79,27.79,0,0,0,12.88,74.47Z"/><path class="cls-1" d="M39.17,98.93l-.25.72c-4.53-1.49-11.83.83-14.93,3.16a22.92,22.92,0,0,1-6.79,2.75l-.05-.18C4.31,102.81,4.31,92.54,4.31,92.54S8.59,97.67,18,96.82C27.06,96,36.92,95.17,39.17,98.93Z"/><path class="cls-1" d="M41.11,27.5c-4.28,3.42,0,10.27-3.43,17.12l-.37.13a22.57,22.57,0,0,0-3.9-7.84,17.21,17.21,0,0,1-1.13-1.55l.27-.16S33.41,30.07,41.11,27.5Z"/><path class="cls-1" d="M30,40.34c3.43,6,.86,12.83.86,12.83l-.33.08c-1.09-4.33-4.76-8.4-7.64-10.89l.27-.31c-.83-7.47,6.39-12.53,6.83-12.82a11,11,0,0,0-1.51,5.56A11.1,11.1,0,0,0,30,40.34Z"/><path class="cls-1" d="M30.84,89.12l-.06.19c-4.14-1.12-9.36.18-13.63,1.53h0C2.6,87.4,4.31,72,4.31,72s4.28,7.7,12,9.41S28.27,84.84,30.84,89.12Z"/><path class="cls-1" d="M27.41,77.13l-.17.35a35.09,35.09,0,0,0-12.66-2.91,16,16,0,0,1-1.7-.1C-1.47,64.21,9.44,49.75,9.44,49.75s0,12,8.56,16.26S27.41,77.13,27.41,77.13Z"/><path class="cls-1" d="M19.71,49.75a27.13,27.13,0,0,1,7.7,14.45c-1.94-1.91-5.25-4.79-8.55-5.89a15.83,15.83,0,0,1-6-4.26l0,0C9.44,44.62,18,35.2,18,35.2S12.87,42.9,19.71,49.75Z"/><path class="cls-3" d="M40.25,100.24c-.15-.09-.32-.18-.49-.26a5.24,5.24,0,0,0-.84-.33c-4.53-1.49-11.83.83-14.93,3.16a22.92,22.92,0,0,1-6.79,2.75c-3.53,1-6.9,1.53-6.9,1.53s3.42,9.41,15.4,9.41,14.55-7.7,17.12-7.7a3,3,0,0,1,2.57,1.71c.85,1.71,4,3.17,6,1.71,3.42-2.57,0-5.13,0-5.13"/><path class="cls-3" d="M39.4,99.38a3.19,3.19,0,0,0-.23-.45C36.92,95.17,27.06,96,18,96.82c-9.41.85-13.69-4.28-13.69-4.28s0,10.27,12.84,12.84"/><path class="cls-3" d="M4.31,92.54a24,24,0,0,0,10.27-.86l2.57-.84c4.27-1.35,9.49-2.65,13.63-1.53a9.43,9.43,0,0,1,1.77.66"/><path class="cls-3" d="M17.15,90.83C2.6,87.4,4.31,72,4.31,72s4.28,7.7,12,9.41,12,3.43,14.55,7.71"/><path class="cls-3" d="M4.31,72a27.79,27.79,0,0,0,8.57,2.47,16,16,0,0,0,1.7.1,35.09,35.09,0,0,1,12.66,2.91,4.23,4.23,0,0,1,1.89,1.37"/><path class="cls-3" d="M27.41,77.13S26.56,70.29,18,66,9.44,49.75,9.44,49.75-1.47,64.21,12.88,74.47l.13.1"/><path class="cls-3" d="M9.44,49.75a30.11,30.11,0,0,0,3.4,4.3,15.83,15.83,0,0,0,6,4.26c3.3,1.1,6.61,4,8.55,5.89,1.07,1,1.72,1.81,1.72,1.81"/><path class="cls-3" d="M27.41,64.3v-.1a27.13,27.13,0,0,0-7.7-14.45C12.87,42.9,18,35.2,18,35.2S9.44,44.62,12.87,54"/><path class="cls-3" d="M18,35.2a8.09,8.09,0,0,0,3.42,6c.45.34.94.73,1.45,1.17,2.88,2.49,6.55,6.56,7.64,10.89a10.08,10.08,0,0,1,.33,2.49"/><path class="cls-3" d="M30,29.21v0a11,11,0,0,0-1.51,5.56A11.1,11.1,0,0,0,30,40.34c3.43,6,.86,12.83.86,12.83"/><path class="cls-3" d="M23.14,42.05c-.83-7.47,6.39-12.53,6.83-12.82"/><path class="cls-3" d="M37.68,46.33s-.1-.61-.37-1.58a22.57,22.57,0,0,0-3.9-7.84,17.21,17.21,0,0,1-1.13-1.55A12.47,12.47,0,0,1,30,29.21"/><path class="cls-3" d="M32.55,35.2s.86-5.13,8.56-7.7c-4.28,3.42,0,10.27-3.43,17.12"/><path class="cls-3" d="M41.11,27.5s0,6,1.71,9.41S43.67,47.18,37.68,54C31.88,60.66,25.27,80.16,42,99.28c.53.61,1.08,1.21,1.66,1.82,3.24,2.68,6.47,4.7,7.57,6.05.64.78.55,1.33-.72,1.65-3.42.85-6.85-3.42-6.85-3.42-4.27-1.72-7.7,0-18,3.42s-15.4-1.71-15.4-1.71"/><path class="cls-1" d="M59.26,100.81s3,2.21,0,4.43c-1.68,1.26-4.43,0-5.17-1.48a2.62,2.62,0,0,0-2.21-1.47c-2.22,0-4.43,6.64-14.77,6.64s-13.29-8.12-13.29-8.12,4.43,4.43,13.29,1.48,11.81-4.43,15.5-3c0,0,3,3.69,5.91,3,1.09-.28,1.18-.76.62-1.43Z"/><path class="cls-2" d="M49.24,94.67l1.94-.59c.46.52.93,1,1.43,1.56,2.8,2.32,5.59,4.06,6.53,5.22.56.67.47,1.15-.62,1.43-3,.73-5.91-3-5.91-3-3.69-1.47-6.64,0-15.5,3s-13.29-1.48-13.29-1.48,2.91-.49,5.95-1.31a19.66,19.66,0,0,0,5.86-2.38c2.68-2,9-4,12.89-2.73A5.66,5.66,0,0,1,49.24,94.67Z"/><path class="cls-2" d="M38.58,63.8a23.45,23.45,0,0,0-6.64-12.46C26,45.43,30.46,38.79,30.46,38.79a7,7,0,0,0,3,5.17c.38.28.8.62,1.25,1,2.48,2.15,5.64,5.66,6.59,9.4l.28-.07s2.21-5.9-.74-11.07a9.46,9.46,0,0,1,0-9.59,0,0,0,0,0,0,0,10.75,10.75,0,0,0,2,5.3,15.48,15.48,0,0,0,1,1.34A19.32,19.32,0,0,1,47.12,47l.33-.12C50.4,41,46.71,35.09,50.4,32.14c0,0,0,5.17,1.48,8.12s.73,8.86-4.43,14.77c-5,5.72-10.72,22.55,3.73,39.05l-1.94.59a5.66,5.66,0,0,0-.72-.28l.21-.62C46.79,90.52,38.28,91.24,30.46,92c-8.12.74-11.81-3.69-11.81-3.69a20.61,20.61,0,0,0,8.86-.74c.69-.23,1.44-.48,2.22-.72,3.69-1.17,8.19-2.29,11.76-1.33l0-.17c-2.22-3.69-5.91-5.16-12.55-6.64s-10.34-8.12-10.34-8.12a24.09,24.09,0,0,0,7.4,2.13,14.13,14.13,0,0,0,1.46.08,30.53,30.53,0,0,1,10.93,2.51l.15-.29s-.74-5.91-8.13-9.6-7.38-14-7.38-14A25.31,25.31,0,0,0,26,55.05a13.61,13.61,0,0,0,5.19,3.67C34.05,59.68,36.91,62.16,38.58,63.8Z"/><path class="cls-1" d="M48.73,93.77l-.21.62c-3.92-1.28-10.21.72-12.89,2.73a19.66,19.66,0,0,1-5.86,2.38l0-.17C18.65,97.12,18.65,88.26,18.65,88.26S22.34,92.69,30.46,92C38.28,91.24,46.79,90.52,48.73,93.77Z"/><path class="cls-1" d="M50.4,32.14c-3.69,3,0,8.86-2.95,14.77l-.33.12a19.32,19.32,0,0,0-3.37-6.77,15.48,15.48,0,0,1-1-1.34l.24-.13S43.75,34.36,50.4,32.14Z"/><path class="cls-1" d="M40.8,43.22c3,5.17.74,11.07.74,11.07l-.28.07c-.95-3.74-4.11-7.25-6.59-9.4l.22-.27c-.71-6.44,5.52-10.81,5.9-11.06a9.46,9.46,0,0,0,0,9.59Z"/><path class="cls-1" d="M41.54,85.3l0,.17c-3.57-1-8.07.16-11.76,1.33v0c-12.56-3-11.08-16.24-11.08-16.24S22.34,77.18,29,78.66,39.32,81.61,41.54,85.3Z"/><path class="cls-1" d="M38.59,75l-.15.29a30.53,30.53,0,0,0-10.93-2.51,14.13,14.13,0,0,1-1.46-.08c-12.38-8.85-3-21.33-3-21.33s0,10.34,7.38,14S38.59,75,38.59,75Z"/><path class="cls-1" d="M31.94,51.34A23.45,23.45,0,0,1,38.58,63.8c-1.67-1.64-4.53-4.12-7.38-5.08A13.61,13.61,0,0,1,26,55.05l0,0c-3-8.12,4.43-16.24,4.43-16.24S26,45.43,31.94,51.34Z"/><path class="cls-3" d="M49.66,94.9l-.42-.23a5.66,5.66,0,0,0-.72-.28c-3.92-1.28-10.21.72-12.89,2.73a19.66,19.66,0,0,1-5.86,2.38c-3,.82-5.95,1.31-5.95,1.31s2.95,8.12,13.29,8.12,12.55-6.64,14.77-6.64a2.62,2.62,0,0,1,2.21,1.47c.74,1.48,3.49,2.74,5.17,1.48,3-2.22,0-4.43,0-4.43"/><path class="cls-3" d="M48.92,94.16a3.49,3.49,0,0,0-.19-.39C46.79,90.52,38.28,91.24,30.46,92c-8.12.74-11.81-3.69-11.81-3.69s0,8.86,11.08,11.07"/><path class="cls-3" d="M18.65,88.26a20.61,20.61,0,0,0,8.86-.74c.69-.23,1.44-.48,2.22-.72,3.69-1.17,8.19-2.29,11.76-1.33A8.27,8.27,0,0,1,43,86"/><path class="cls-3" d="M29.73,86.78c-12.56-3-11.08-16.24-11.08-16.24S22.34,77.18,29,78.66s10.33,3,12.55,6.64"/><path class="cls-3" d="M18.65,70.54a24.09,24.09,0,0,0,7.4,2.13,14.13,14.13,0,0,0,1.46.08,30.53,30.53,0,0,1,10.93,2.51,3.61,3.61,0,0,1,1.62,1.18"/><path class="cls-3" d="M38.59,75s-.74-5.91-8.13-9.6-7.38-14-7.38-14-9.41,12.48,3,21.33l.11.08"/><path class="cls-3" d="M23.08,51.34A25.31,25.31,0,0,0,26,55.05a13.61,13.61,0,0,0,5.19,3.67c2.85,1,5.71,3.44,7.38,5.08.92.91,1.48,1.57,1.48,1.57"/><path class="cls-3" d="M38.59,63.89a.62.62,0,0,0,0-.09,23.45,23.45,0,0,0-6.64-12.46C26,45.43,30.46,38.79,30.46,38.79S23.08,46.91,26,55"/><path class="cls-3" d="M30.46,38.79a7,7,0,0,0,3,5.17c.38.28.8.62,1.25,1,2.48,2.15,5.64,5.66,6.59,9.4a8.75,8.75,0,0,1,.28,2.15"/><path class="cls-3" d="M40.8,33.62a0,0,0,0,1,0,0,9.46,9.46,0,0,0,0,9.59c3,5.17.74,11.07.74,11.07"/><path class="cls-3" d="M34.89,44.69c-.71-6.44,5.52-10.81,5.9-11.06"/><path class="cls-3" d="M47.45,48.39A13.69,13.69,0,0,0,47.12,47a19.32,19.32,0,0,0-3.37-6.77,15.48,15.48,0,0,1-1-1.34,10.75,10.75,0,0,1-2-5.3"/><path class="cls-3" d="M43,38.79s.73-4.43,7.38-6.65c-3.69,3,0,8.86-2.95,14.77"/><path class="cls-3" d="M50.4,32.14s0,5.17,1.48,8.12.73,8.86-4.43,14.77c-5,5.72-10.72,22.55,3.73,39.05.46.52.93,1,1.43,1.56,2.8,2.32,5.59,4.06,6.53,5.22.56.67.47,1.15-.62,1.43-3,.73-5.91-3-5.91-3-3.69-1.47-6.64,0-15.5,3s-13.29-1.48-13.29-1.48"/><path class="cls-1" d="M94.42,107.09s-3.42,2.56,0,5.13c1.93,1.46,5.13,0,6-1.71A3,3,0,0,1,103,108.8c2.56,0,5.13,7.7,17.11,7.7s15.41-9.41,15.41-9.41-5.14,5.13-15.41,1.71-13.69-5.14-18-3.42c0,0-3.42,4.27-6.84,3.42-1.27-.32-1.37-.87-.72-1.65Z"/><path class="cls-2" d="M106,100l-2.25-.7c-.53.61-1.08,1.21-1.66,1.82-3.23,2.68-6.47,4.7-7.56,6.05-.65.78-.55,1.33.72,1.65,3.42.85,6.84-3.42,6.84-3.42,4.28-1.72,7.7,0,18,3.42s15.41-1.71,15.41-1.71-3.38-.57-6.9-1.53a23,23,0,0,1-6.8-2.75c-3.09-2.33-10.39-4.65-14.93-3.16A6.1,6.1,0,0,0,106,100Z"/><path class="cls-2" d="M118.39,64.2a27.16,27.16,0,0,1,7.69-14.45c6.85-6.85,1.71-14.55,1.71-14.55a8.09,8.09,0,0,1-3.42,6c-.44.34-.93.73-1.44,1.17-2.89,2.49-6.55,6.56-7.65,10.89l-.32-.08s-2.57-6.84.85-12.83a11.12,11.12,0,0,0,1.53-5.55,11,11,0,0,0-1.51-5.56l0,0a12.51,12.51,0,0,1-2.29,6.15,17.21,17.21,0,0,1-1.13,1.55,22.57,22.57,0,0,0-3.9,7.84l-.38-.13c-3.42-6.85.86-13.7-3.42-17.12,0,0,0,6-1.71,9.41s-.86,10.27,5.13,17.12c5.8,6.63,12.42,26.13-4.33,45.25l2.25.7a6.1,6.1,0,0,1,.84-.33l-.25-.72c2.25-3.76,12.11-2.93,21.17-2.11,9.42.85,13.7-4.28,13.7-4.28a24,24,0,0,1-10.27-.86l-2.58-.84c-4.27-1.35-9.49-2.65-13.62-1.53l-.06-.19c2.57-4.28,6.84-6,14.55-7.71s12-9.41,12-9.41a27.6,27.6,0,0,1-8.59,2.47,15.62,15.62,0,0,1-1.68.1,35.19,35.19,0,0,0-12.67,2.91l-.17-.35s.86-6.84,9.41-11.12,8.56-16.26,8.56-16.26a29.58,29.58,0,0,1-3.39,4.3,15.83,15.83,0,0,1-6,4.26C123.64,59.41,120.32,62.29,118.39,64.2Z"/><path class="cls-1" d="M106.62,98.93l.25.72c4.54-1.49,11.84.83,14.93,3.16a23,23,0,0,0,6.8,2.75l.05-.18c12.84-2.57,12.84-12.84,12.84-12.84s-4.28,5.13-13.7,4.28C118.73,96,108.87,95.17,106.62,98.93Z"/><path class="cls-1" d="M104.69,27.5c4.28,3.42,0,10.27,3.42,17.12l.38.13a22.57,22.57,0,0,1,3.9-7.84,17.21,17.21,0,0,0,1.13-1.55l-.27-.16S112.39,30.07,104.69,27.5Z"/><path class="cls-1" d="M115.81,40.34c-3.42,6-.85,12.83-.85,12.83l.32.08c1.1-4.33,4.76-8.4,7.65-10.89l-.27-.31c.83-7.47-6.4-12.53-6.83-12.82a11,11,0,0,1,1.51,5.56A11.12,11.12,0,0,1,115.81,40.34Z"/><path class="cls-1" d="M115,89.12l.06.19c4.13-1.12,9.35.18,13.62,1.53h0C143.2,87.4,141.49,72,141.49,72s-4.28,7.7-12,9.41S117.53,84.84,115,89.12Z"/><path class="cls-1" d="M118.38,77.13l.17.35a35.19,35.19,0,0,1,12.67-2.91,15.62,15.62,0,0,0,1.68-.1c14.35-10.26,3.45-24.72,3.45-24.72s0,12-8.56,16.26S118.38,77.13,118.38,77.13Z"/><path class="cls-1" d="M126.08,49.75a27.16,27.16,0,0,0-7.69,14.45c1.93-1.91,5.25-4.79,8.55-5.89a15.83,15.83,0,0,0,6-4.26l0,0c3.42-9.41-5.14-18.83-5.14-18.83S132.93,42.9,126.08,49.75Z"/><path class="cls-3" d="M105.54,100.24c.16-.09.32-.18.49-.26a6.1,6.1,0,0,1,.84-.33c4.54-1.49,11.84.83,14.93,3.16a23,23,0,0,0,6.8,2.75c3.52,1,6.9,1.53,6.9,1.53s-3.43,9.41-15.41,9.41-14.55-7.7-17.11-7.7a3,3,0,0,0-2.57,1.71c-.86,1.71-4.06,3.17-6,1.71-3.42-2.57,0-5.13,0-5.13"/><path class="cls-3" d="M106.4,99.38a4.66,4.66,0,0,1,.22-.45c2.25-3.76,12.11-2.93,21.17-2.11,9.42.85,13.7-4.28,13.7-4.28s0,10.27-12.84,12.84"/><path class="cls-3" d="M141.49,92.54a24,24,0,0,1-10.27-.86l-2.58-.84c-4.27-1.35-9.49-2.65-13.62-1.53a8.94,8.94,0,0,0-1.77.66"/><path class="cls-3" d="M128.65,90.83C143.2,87.4,141.49,72,141.49,72s-4.28,7.7-12,9.41-12,3.43-14.55,7.71"/><path class="cls-3" d="M141.49,72a27.6,27.6,0,0,1-8.59,2.47,15.62,15.62,0,0,1-1.68.1,35.19,35.19,0,0,0-12.67,2.91,4.18,4.18,0,0,0-1.88,1.37"/><path class="cls-3" d="M118.38,77.13s.86-6.84,9.41-11.12,8.56-16.26,8.56-16.26,10.9,14.46-3.45,24.72l-.12.1"/><path class="cls-3" d="M136.35,49.75a29.58,29.58,0,0,1-3.39,4.3,15.83,15.83,0,0,1-6,4.26c-3.3,1.1-6.62,4-8.55,5.89-1.07,1-1.72,1.81-1.72,1.81"/><path class="cls-3" d="M118.38,64.3a.67.67,0,0,1,0-.1,27.16,27.16,0,0,1,7.69-14.45c6.85-6.85,1.71-14.55,1.71-14.55s8.56,9.42,5.14,18.83"/><path class="cls-3" d="M127.79,35.2a8.09,8.09,0,0,1-3.42,6c-.44.34-.93.73-1.44,1.17-2.89,2.49-6.55,6.56-7.65,10.89a10.56,10.56,0,0,0-.32,2.49"/><path class="cls-3" d="M115.81,29.21l0,0a11,11,0,0,1,1.51,5.56,11.12,11.12,0,0,1-1.53,5.55c-3.42,6-.85,12.83-.85,12.83"/><path class="cls-3" d="M122.66,42.05c.83-7.47-6.4-12.53-6.83-12.82"/><path class="cls-3" d="M108.11,46.33a15.2,15.2,0,0,1,.38-1.58,22.57,22.57,0,0,1,3.9-7.84,17.21,17.21,0,0,0,1.13-1.55,12.51,12.51,0,0,0,2.29-6.15"/><path class="cls-3" d="M113.25,35.2s-.86-5.13-8.56-7.7c4.28,3.42,0,10.27,3.42,17.12"/><path class="cls-3" d="M104.69,27.5s0,6-1.71,9.41-.86,10.27,5.13,17.12c5.8,6.63,12.42,26.13-4.33,45.25-.53.61-1.08,1.21-1.66,1.82-3.23,2.68-6.47,4.7-7.56,6.05-.65.78-.55,1.33.72,1.65,3.42.85,6.84-3.42,6.84-3.42,4.28-1.72,7.7,0,18,3.42s15.41-1.71,15.41-1.71"/><path class="cls-1" d="M86.53,100.81s-3,2.21,0,4.43c1.67,1.26,4.43,0,5.17-1.48a2.63,2.63,0,0,1,2.22-1.47c2.21,0,4.43,6.64,14.76,6.64S122,100.81,122,100.81s-4.43,4.43-13.29,1.48-11.81-4.43-15.5-3c0,0-3,3.69-5.91,3-1.09-.28-1.17-.76-.62-1.43Z"/><path class="cls-2" d="M96.55,94.67l-1.94-.59c-.46.52-.93,1-1.43,1.56-2.79,2.32-5.59,4.06-6.53,5.22-.55.67-.47,1.15.62,1.43,3,.73,5.91-3,5.91-3,3.69-1.47,6.64,0,15.5,3S122,100.81,122,100.81s-2.91-.49-6-1.31a19.77,19.77,0,0,1-5.86-2.38c-2.67-2-9-4-12.89-2.73A5.66,5.66,0,0,0,96.55,94.67Z"/><path class="cls-2" d="M97.06,93.77C99,90.52,107.51,91.24,115.33,92c8.12.74,11.81-3.69,11.81-3.69a20.61,20.61,0,0,1-8.86-.74c-.69-.23-1.44-.48-2.22-.72-3.69-1.17-8.19-2.29-11.76-1.33l0-.17c2.22-3.69,5.91-5.16,12.55-6.64s10.34-8.12,10.34-8.12a24.09,24.09,0,0,1-7.4,2.13,14.13,14.13,0,0,1-1.46.08,30.58,30.58,0,0,0-10.93,2.51l-.14-.29s.73-5.91,8.12-9.6,7.38-14,7.38-14a25.31,25.31,0,0,1-2.93,3.71,13.61,13.61,0,0,1-5.19,3.67c-2.85,1-5.71,3.44-7.38,5.08a23.45,23.45,0,0,1,6.64-12.46c5.91-5.91,1.48-12.55,1.48-12.55a7,7,0,0,1-3,5.17c-.38.28-.8.62-1.24,1-2.49,2.15-5.65,5.66-6.6,9.4l-.28-.07s-2.21-5.9.74-11.07a9.43,9.43,0,0,0,0-9.59s0,0,0,0a10.75,10.75,0,0,1-2,5.3,13.61,13.61,0,0,1-1,1.34A19.32,19.32,0,0,0,98.67,47l-.32-.12c-3-5.91.73-11.82-3-14.77,0,0,0,5.17-1.47,8.12S93.18,49.12,98.35,55c5,5.72,10.71,22.55-3.74,39.05l1.94.59a5.66,5.66,0,0,1,.72-.28Z"/><path class="cls-1" d="M97.06,93.77l.21.62c3.92-1.28,10.22.72,12.89,2.73A19.77,19.77,0,0,0,116,99.5l0-.17c11.07-2.21,11.07-11.07,11.07-11.07s-3.69,4.43-11.81,3.69C107.51,91.24,99,90.52,97.06,93.77Z"/><path class="cls-1" d="M95.39,32.14c3.69,3,0,8.86,3,14.77l.32.12A19.32,19.32,0,0,1,102,40.26a13.61,13.61,0,0,0,1-1.34l-.23-.13S102,34.36,95.39,32.14Z"/><path class="cls-1" d="M105,43.22c-2.95,5.17-.74,11.07-.74,11.07l.28.07c1-3.74,4.11-7.25,6.6-9.4l-.23-.27c.71-6.44-5.53-10.81-5.89-11.06a9.43,9.43,0,0,1,0,9.59Z"/><path class="cls-1" d="M104.25,85.3l0,.17c3.57-1,8.07.16,11.76,1.33v0c12.55-3,11.07-16.24,11.07-16.24s-3.69,6.64-10.34,8.12S106.47,81.61,104.25,85.3Z"/><path class="cls-1" d="M107.21,75l.14.29a30.58,30.58,0,0,1,10.93-2.51,14.13,14.13,0,0,0,1.46-.08c12.38-8.85,3-21.33,3-21.33s0,10.34-7.38,14S107.21,75,107.21,75Z"/><path class="cls-1" d="M113.85,51.34a23.45,23.45,0,0,0-6.64,12.46c1.67-1.64,4.53-4.12,7.38-5.08a13.61,13.61,0,0,0,5.19-3.67l0,0c2.95-8.12-4.43-16.24-4.43-16.24S119.76,45.43,113.85,51.34Z"/><path class="cls-3" d="M96.13,94.9l.42-.23a5.66,5.66,0,0,1,.72-.28c3.92-1.28,10.22.72,12.89,2.73A19.77,19.77,0,0,0,116,99.5c3,.82,6,1.31,6,1.31s-3,8.12-13.29,8.12-12.55-6.64-14.76-6.64a2.63,2.63,0,0,0-2.22,1.47c-.74,1.48-3.5,2.74-5.17,1.48-3-2.22,0-4.43,0-4.43"/><path class="cls-3" d="M96.87,94.16a3.49,3.49,0,0,1,.19-.39C99,90.52,107.51,91.24,115.33,92c8.12.74,11.81-3.69,11.81-3.69s0,8.86-11.07,11.07"/><path class="cls-3" d="M127.14,88.26a20.61,20.61,0,0,1-8.86-.74c-.69-.23-1.44-.48-2.22-.72-3.69-1.17-8.19-2.29-11.76-1.33a7.92,7.92,0,0,0-1.52.57"/><path class="cls-3" d="M116.07,86.78c12.55-3,11.07-16.24,11.07-16.24s-3.69,6.64-10.34,8.12-10.33,3-12.55,6.64"/><path class="cls-3" d="M127.14,70.54a24.09,24.09,0,0,1-7.4,2.13,14.13,14.13,0,0,1-1.46.08,30.58,30.58,0,0,0-10.93,2.51,3.61,3.61,0,0,0-1.62,1.18"/><path class="cls-3" d="M107.21,75s.73-5.91,8.12-9.6,7.38-14,7.38-14,9.41,12.48-3,21.33l-.11.08"/><path class="cls-3" d="M122.71,51.34a25.31,25.31,0,0,1-2.93,3.71,13.61,13.61,0,0,1-5.19,3.67c-2.85,1-5.71,3.44-7.38,5.08-.92.91-1.48,1.57-1.48,1.57"/><path class="cls-3" d="M107.21,63.89V63.8a23.45,23.45,0,0,1,6.64-12.46c5.91-5.91,1.48-12.55,1.48-12.55s7.38,8.12,4.43,16.24"/><path class="cls-3" d="M115.33,38.79a7,7,0,0,1-3,5.17c-.38.28-.8.62-1.24,1-2.49,2.15-5.65,5.66-6.6,9.4a9.26,9.26,0,0,0-.28,2.15"/><path class="cls-3" d="M105,33.62s0,0,0,0a9.43,9.43,0,0,1,0,9.59c-2.95,5.17-.74,11.07-.74,11.07"/><path class="cls-3" d="M110.9,44.69c.71-6.44-5.53-10.81-5.89-11.06"/><path class="cls-3" d="M98.35,48.39A11.76,11.76,0,0,1,98.67,47,19.32,19.32,0,0,1,102,40.26a13.61,13.61,0,0,0,1-1.34,10.75,10.75,0,0,0,2-5.3"/><path class="cls-3" d="M102.78,38.79s-.74-4.43-7.39-6.65c3.69,3,0,8.86,3,14.77"/><path class="cls-3" d="M95.39,32.14s0,5.17-1.47,8.12S93.18,49.12,98.35,55c5,5.72,10.71,22.55-3.74,39.05-.46.52-.93,1-1.43,1.56-2.79,2.32-5.59,4.06-6.53,5.22-.55.67-.47,1.15.62,1.43,3,.73,5.91-3,5.91-3,3.69-1.47,6.64,0,15.5,3S122,100.81,122,100.81"/><path class="cls-4" d="M58.73,91.66a32.1,32.1,0,0,0-5.62-5.85L53,85.57a6.94,6.94,0,0,0,3.29-2.31h0a18.93,18.93,0,0,0,3.29,4.11l.18.05a22.93,22.93,0,0,0-.9,4.25Z"/><path class="cls-5" d="M47.32,86.42,49,83l4.65-9.31.28-.55L66.73,72s-3.88,1.11-4.44,3.33-2.77,5-5,5a5,5,0,0,1-1,2.94A6.94,6.94,0,0,1,53,85.57,16.58,16.58,0,0,1,47.32,86.42Z"/><path class="cls-4" d="M40.66,75.33a32.14,32.14,0,0,1,27.27-31.8l-1.2,2.4v9.82h-.11c-.57.2-1.13.41-1.68.65h0c-.59-.66-1-1-1-1s-3.89,1.11-3.33,2.77a5.78,5.78,0,0,1,.84.27h0a18.67,18.67,0,0,0-4.58,4.76h0A35.94,35.94,0,0,0,50.09,67s1,1.56,4.13,2.16l0,.11a19.23,19.23,0,0,0-.51,4.38L49,83l-.4-.2A31.59,31.59,0,0,0,41,79.68,33,33,0,0,1,40.66,75.33Z"/><path class="cls-4" d="M64.77,106.48a35.6,35.6,0,0,0-2.38-8.81l-.28,0c1.18-1.47,2.33-2.34,3-2.34s.92-1.71,1.48-3.75a19.09,19.09,0,0,0,11.77.08c.54,2,.94,3.67,1.45,3.67a3.51,3.51,0,0,1,1.9,1.17h0a31.18,31.18,0,0,0-3,10.49,32.47,32.47,0,0,1-5.79.53A32,32,0,0,1,64.77,106.48Z"/><path class="cls-5" d="M66.55,91.55c-.56,2-1,3.75-1.48,3.75s-1.78.87-3,2.34A18.7,18.7,0,0,0,59.52,102a30.19,30.19,0,0,1-.63-10.27,22.93,22.93,0,0,1,.9-4.25A22,22,0,0,1,70.06,74.77s2.22,8.32-.56,10.54C68,86.49,67.19,89.23,66.55,91.55Z"/><path class="cls-5" d="M66.73,55.75v2.78c-.66-.85-1.29-1.57-1.79-2.12h0c.55-.24,1.11-.45,1.68-.65Z"/><path class="cls-5" d="M80,56.32c-.64.7-1.53,1.74-2.43,2.93h0V55.5h.13a18.21,18.21,0,0,1,2.32.82Z"/><path class="cls-5" d="M81.67,96.47a3.51,3.51,0,0,0-1.9-1.17c-.51,0-.91-1.67-1.45-3.67-.65-2.33-1.49-5.12-3-6.32-2.77-2.22-.55-10.54-.55-10.54A22,22,0,0,1,85.13,87.7a23.4,23.4,0,0,1,.61,2.56A29.44,29.44,0,0,1,85.32,102a17.47,17.47,0,0,0-3.65-5.47Z"/><path class="cls-4" d="M91,85.21a27,27,0,0,0-5.24,5.05,23.4,23.4,0,0,0-.61-2.56h0a18.93,18.93,0,0,0,3.52-4.24A6.44,6.44,0,0,0,91,85.21Z"/><path class="cls-4" d="M104.77,79.18a30.89,30.89,0,0,0-9.27,3.21l-4.3-8.61.21-.12v-.51a19,19,0,0,0-.54-4h0A6.33,6.33,0,0,0,94.75,67,35.89,35.89,0,0,0,88,63.2l.08-.21a18.87,18.87,0,0,0-4.57-4.65,4.24,4.24,0,0,1,.67-.21c.55-1.66-3.33-2.77-3.33-2.77s-.35.35-.91,1a18.21,18.21,0,0,0-2.32-.82h-.13V45.93l-1.3-2.6a32.16,32.16,0,0,1,28.79,32A32.62,32.62,0,0,1,104.77,79.18Z"/><path class="cls-5" d="M95.5,82.39l2,4A15,15,0,0,1,91,85.21a6.44,6.44,0,0,1-2.3-1.76,5,5,0,0,1-1.14-3.13c-2.22,0-4.44-2.77-5-5S78.11,72,78.11,72l12.76,1.11.33.67Z"/><path class="cls-6" d="M54.53,69.23c3.32.55,5-2.22,6.65-1.11S69,69.23,69,69.23s-6.1-6.66-9.43-6.66a7.59,7.59,0,0,0-2.63.6,18.67,18.67,0,0,1,4.58-4.76c2.76,1.2,6.64,5.48,9.14,7.49-.3-2.38-2.18-5.24-3.88-7.37V45.93l1.2-2.4h0a31.76,31.76,0,0,1,4.9-.37c1.14,0,2.28.06,3.39.17l1.3,2.6V59.24h0c-1.52,2-3.05,4.53-3.32,6.65,2.57-2.05,6.54-6.46,9.32-7.56A18.87,18.87,0,0,1,88.11,63L88,63.2a7.91,7.91,0,0,0-2.71-.63c-3.33,0-9.43,6.66-9.43,6.66s6.1,0,7.76-1.11,3.33,1.66,6.66,1.11l.56-.11h0a19,19,0,0,1,.54,4v.51l-.21.12-.33-.67L78.11,72s3.88,1.11,4.44,3.33,2.77,5,5,5a5,5,0,0,0,1.14,3.13,18.93,18.93,0,0,1-3.52,4.24h0A22,22,0,0,0,74.78,74.77s-2.22,8.32.55,10.54c1.5,1.2,2.34,4,3,6.32a19.09,19.09,0,0,1-11.77-.08c.64-2.32,1.48-5.06,3-6.24,2.78-2.22.56-10.54.56-10.54A22,22,0,0,0,59.79,87.43l-.18-.05a18.93,18.93,0,0,1-3.29-4.11h0a5,5,0,0,0,1-2.94c2.22,0,4.44-2.77,5-5S66.73,72,66.73,72L54,73.11l-.28.55a19.23,19.23,0,0,1,.51-4.38l0-.11Z"/><path class="cls-5" d="M90.87,69.12l-.56.11c-3.33.55-5-2.22-6.66-1.11s-7.76,1.11-7.76,1.11,6.1-6.66,9.43-6.66A7.91,7.91,0,0,1,88,63.2,35.89,35.89,0,0,1,94.75,67,6.33,6.33,0,0,1,90.87,69.12Z"/><path class="cls-5" d="M83.54,58.34c-2.78,1.1-6.75,5.51-9.32,7.56.27-2.12,1.8-4.62,3.32-6.65.9-1.19,1.79-2.23,2.43-2.93h0c.56-.61.91-1,.91-1s3.88,1.11,3.33,2.77A4.24,4.24,0,0,0,83.54,58.34Z"/><path class="cls-5" d="M66.73,58.53c1.7,2.13,3.58,5,3.88,7.37-2.5-2-6.38-6.29-9.14-7.49h0a5.78,5.78,0,0,0-.84-.27C60.07,56.47,64,55.36,64,55.36s.39.39,1,1S66.07,57.68,66.73,58.53Z"/><path class="cls-5" d="M54.53,69.23l-.31-.06c-3.09-.6-4.13-2.16-4.13-2.16a35.94,35.94,0,0,1,6.79-3.84h0a7.59,7.59,0,0,1,2.63-.6c3.33,0,9.43,6.66,9.43,6.66s-6.1,0-7.77-1.11S57.85,69.78,54.53,69.23Z"/><path class="cls-7" d="M76.41,38.16S87,40.38,84.73,45.37c-4.44-5.54-8.87-2.77-8.87-2.77l.36.73c-1.11-.11-2.25-.17-3.39-.17a31.76,31.76,0,0,0-4.9.37l.46-.93S64,39.83,59.52,45.37c-2.22-5,8.32-7.21,8.32-7.21Z"/><path class="cls-8" d="M78.07,23.19C84.73,24.3,83.62,31,83.62,31a5.1,5.1,0,0,0-5-1.66h-13a5.1,5.1,0,0,0-5,1.66s-1.11-6.65,5.55-7.76c2.77-.56,3.88-6.11,3.88-6.11V10.43H68.39V8.76L72.13,7.7l3.73,1.06v1.67H74.19v6.65S75.3,22.63,78.07,23.19Z"/><path class="cls-9" d="M65.62,29.29h13s-.56,1.11-.56,5c-1.66,0-1.66,3.88-1.66,3.88H67.84s0-3.88-1.66-3.88C66.18,30.4,65.62,29.29,65.62,29.29Z"/><path class="cls-10" d="M85.68,90.33l.06-.07A27,27,0,0,1,91,85.21l.12-.09"/><line class="cls-10" x1="81.67" y1="96.47" x2="81.68" y2="96.47"/><path class="cls-10" d="M62.39,97.67a35.6,35.6,0,0,1,2.38,8.81,32,32,0,0,0,8.06,1,32.47,32.47,0,0,0,5.79-.53,31.18,31.18,0,0,1,3-10.49"/><path class="cls-10" d="M53.11,85.81a32.1,32.1,0,0,1,5.62,5.85"/><path class="cls-10" d="M67.93,43.53a32.14,32.14,0,0,0-27.27,31.8,33,33,0,0,0,.3,4.35,31.59,31.59,0,0,1,7.68,3.09"/><path class="cls-10" d="M95.28,82.51l.22-.12a30.89,30.89,0,0,1,9.27-3.21,32.62,32.62,0,0,0,.24-3.85,32.16,32.16,0,0,0-28.79-32c-1.11-.11-2.25-.17-3.39-.17a31.76,31.76,0,0,0-4.9.37"/><path class="cls-10" d="M53,85.57a16.58,16.58,0,0,1-5.7.85L49,83l4.65-9.31.28-.55L66.73,72s-3.88,1.11-4.44,3.33-2.77,5-5,5a5,5,0,0,1-1,2.94A6.94,6.94,0,0,1,53,85.57Z"/><path class="cls-10" d="M66.55,91.55c.64-2.32,1.48-5.06,3-6.24,2.78-2.22.56-10.54.56-10.54A22,22,0,0,0,59.79,87.43a22.93,22.93,0,0,0-.9,4.25A30.19,30.19,0,0,0,59.52,102a18.7,18.7,0,0,1,2.59-4.31c1.18-1.47,2.33-2.34,3-2.34S66,93.59,66.55,91.55Z"/><path class="cls-10" d="M56.89,63.17a7.59,7.59,0,0,1,2.63-.6c3.33,0,9.43,6.66,9.43,6.66s-6.1,0-7.77-1.11-3.33,1.66-6.65,1.11l-.31-.06c-3.09-.6-4.13-2.16-4.13-2.16a35.94,35.94,0,0,1,6.79-3.84"/><path class="cls-10" d="M61.47,58.4a5.78,5.78,0,0,0-.84-.27C60.07,56.47,64,55.36,64,55.36s.39.39,1,1,1.13,1.27,1.79,2.12c1.7,2.13,3.58,5,3.88,7.37-2.5-2-6.38-6.29-9.14-7.49"/><path class="cls-10" d="M91,85.21a15,15,0,0,0,6.54,1.21l-2-4-4.3-8.61-.33-.67L78.11,72s3.88,1.11,4.44,3.33,2.77,5,5,5a5,5,0,0,0,1.14,3.13A6.44,6.44,0,0,0,91,85.21Z"/><path class="cls-10" d="M78.32,91.63c-.65-2.33-1.49-5.12-3-6.32-2.77-2.22-.55-10.54-.55-10.54A22,22,0,0,1,85.13,87.7a23.4,23.4,0,0,1,.61,2.56A29.44,29.44,0,0,1,85.32,102a17.47,17.47,0,0,0-3.65-5.47h0a3.51,3.51,0,0,0-1.9-1.17C79.26,95.3,78.86,93.63,78.32,91.63Z"/><path class="cls-10" d="M90.87,69.12A6.33,6.33,0,0,0,94.75,67,35.89,35.89,0,0,0,88,63.2a7.91,7.91,0,0,0-2.71-.63c-3.33,0-9.43,6.66-9.43,6.66s6.1,0,7.76-1.11,3.33,1.66,6.66,1.11Z"/><path class="cls-10" d="M80,56.32c-.64.7-1.53,1.74-2.43,2.93-1.52,2-3.05,4.53-3.32,6.65,2.57-2.05,6.54-6.46,9.32-7.56a4.24,4.24,0,0,1,.67-.21c.55-1.66-3.33-2.77-3.33-2.77s-.35.35-.91,1"/><path class="cls-10" d="M64.94,56.4c.55-.24,1.11-.45,1.68-.65"/><path class="cls-10" d="M56.63,63.55l.25-.38h0a18.67,18.67,0,0,1,4.58-4.76h0"/><path class="cls-10" d="M53.69,73.66a19.23,19.23,0,0,1,.51-4.38"/><path class="cls-10" d="M59.61,87.38a18.93,18.93,0,0,1-3.29-4.11"/><path class="cls-10" d="M78.43,91.59l-.11,0a19.09,19.09,0,0,1-11.77-.08l0,0"/><path class="cls-10" d="M88.83,83.21l-.15.24a18.93,18.93,0,0,1-3.52,4.24"/><path class="cls-10" d="M90.87,69.13a19,19,0,0,1,.54,4v.51"/><path class="cls-10" d="M83.39,58.23l.15.11A18.87,18.87,0,0,1,88.11,63"/><path class="cls-10" d="M77.65,55.5a18.21,18.21,0,0,1,2.32.82h0"/><path class="cls-10" d="M66.73,58.69V45.93l1.2-2.4h0l.46-.93S64,39.83,59.52,45.37c-2.22-5,8.32-7.21,8.32-7.21s0-3.88-1.66-3.88c0-3.88-.56-5-.56-5a5.1,5.1,0,0,0-5,1.66s-1.11-6.65,5.55-7.76c2.77-.56,3.88-6.11,3.88-6.11V10.43H68.39V8.76L72.13,7.7l.15,0"/><path class="cls-10" d="M77.52,59.24V45.93l-1.3-2.6-.36-.73s4.43-2.77,8.87,2.77c2.22-5-8.32-7.21-8.32-7.21s0-3.88,1.66-3.88c0-3.88.56-5,.56-5a5.1,5.1,0,0,1,5,1.66s1.11-6.65-5.55-7.76c-2.77-.56-3.88-6.11-3.88-6.11V10.43h1.67V8.76L72.13,7.7l-.16,0"/><line class="cls-10" x1="65.62" y1="29.29" x2="78.63" y2="29.29"/><line class="cls-10" x1="67.84" y1="38.16" x2="76.41" y2="38.16"/><path class="cls-11" d="M109.44,126.36V110.83a10,10,0,0,1-10-10H44.54a10,10,0,0,1-10,10v15.53a10,10,0,0,1,10,10H99.46A10,10,0,0,1,109.44,126.36Z"/></svg>