<svg id="Layer_1" data-name="Layer 1" xmlns="http://www.w3.org/2000/svg" viewBox="0 0 144 144"><defs><style>.cls-1{fill:#323e93;}.cls-2{fill:#dce4fa;}.cls-3,.cls-9{fill:none;}.cls-3{stroke:#4d4d4d;stroke-linecap:round;stroke-linejoin:round;}.cls-4{fill:#c9a144;}.cls-5{fill:#999;}.cls-6{fill:#42210b;}.cls-7{fill:#c0c4b5;}.cls-8{fill:#2d2c7e;}.cls-9{stroke:#333;stroke-miterlimit:10;}</style></defs><title>9</title><path class="cls-1" d="M51.37,107.09s3.42,2.56,0,5.13c-1.93,1.46-5.13,0-6-1.71a3,3,0,0,0-2.57-1.71c-2.57,0-5.13,7.7-17.11,7.7s-15.41-9.41-15.41-9.41,5.14,5.13,15.41,1.71,13.69-5.14,18-3.42c0,0,3.42,4.27,6.84,3.42,1.27-.32,1.36-.87.72-1.65Z"/><path class="cls-2" d="M39.76,100l2.25-.7c.53.61,1.08,1.21,1.66,1.82,3.23,2.68,6.47,4.7,7.56,6.05.64.78.55,1.33-.72,1.65-3.42.85-6.84-3.42-6.84-3.42-4.28-1.72-7.7,0-18,3.42s-15.41-1.71-15.41-1.71,3.37-.57,6.9-1.53a23,23,0,0,0,6.8-2.75c3.09-2.33,10.39-4.65,14.93-3.16A6.1,6.1,0,0,1,39.76,100Z"/><path class="cls-2" d="M30.77,89.31l.06-.19c-2.57-4.28-6.84-6-14.55-7.71S4.3,72,4.3,72a27.6,27.6,0,0,0,8.59,2.47,15.62,15.62,0,0,0,1.68.1,35.19,35.19,0,0,1,12.67,2.91l.17-.35S26.55,70.29,18,66,9.44,49.75,9.44,49.75a29.58,29.58,0,0,0,3.39,4.3,15.83,15.83,0,0,0,6,4.26c3.3,1.1,6.62,4,8.55,5.89a27.16,27.16,0,0,0-7.69-14.45C12.86,42.9,18,35.2,18,35.2a8.08,8.08,0,0,0,3.43,6c.44.34.93.73,1.44,1.17,2.89,2.49,6.55,6.56,7.65,10.89l.32-.08S33.4,46.33,30,40.34a11.12,11.12,0,0,1-1.53-5.55A11,11,0,0,1,30,29.23l0,0a12.51,12.51,0,0,0,2.29,6.15,17.21,17.21,0,0,0,1.13,1.55,22.57,22.57,0,0,1,3.9,7.84l.38-.13c3.42-6.85-.86-13.7,3.42-17.12,0,0,0,6,1.71,9.41S43.67,47.18,37.68,54C31.88,60.66,25.26,80.16,42,99.28l-2.25.7a6.1,6.1,0,0,0-.84-.33l.25-.72C36.92,95.17,27.06,96,18,96.82,8.58,97.67,4.3,92.54,4.3,92.54a24,24,0,0,0,10.27-.86l2.58-.84C21.42,89.49,26.64,88.19,30.77,89.31Z"/><path class="cls-1" d="M39.17,98.93l-.25.72c-4.54-1.49-11.84.83-14.93,3.16a23,23,0,0,1-6.8,2.75l-.05-.18C4.3,102.81,4.3,92.54,4.3,92.54S8.58,97.67,18,96.82C27.06,96,36.92,95.17,39.17,98.93Z"/><path class="cls-1" d="M41.1,27.5c-4.28,3.42,0,10.27-3.42,17.12l-.38.13a22.57,22.57,0,0,0-3.9-7.84,17.21,17.21,0,0,1-1.13-1.55l.27-.16S33.4,30.07,41.1,27.5Z"/><path class="cls-1" d="M30,40.34c3.42,6,.85,12.83.85,12.83l-.32.08c-1.1-4.33-4.76-8.4-7.65-10.89l.27-.31c-.83-7.47,6.4-12.53,6.83-12.82a11,11,0,0,0-1.51,5.56A11.12,11.12,0,0,0,30,40.34Z"/><path class="cls-1" d="M30.83,89.12l-.06.19c-4.13-1.12-9.35.18-13.62,1.53h0C2.59,87.4,4.3,72,4.3,72s4.28,7.7,12,9.41S28.26,84.84,30.83,89.12Z"/><path class="cls-1" d="M27.41,77.13l-.17.35a35.19,35.19,0,0,0-12.67-2.91,15.62,15.62,0,0,1-1.68-.1C-1.47,64.21,9.44,49.75,9.44,49.75s0,12,8.55,16.26S27.41,77.13,27.41,77.13Z"/><path class="cls-1" d="M19.71,49.75A27.16,27.16,0,0,1,27.4,64.2c-1.93-1.91-5.25-4.79-8.55-5.89a15.83,15.83,0,0,1-6-4.26l0,0C9.44,44.62,18,35.2,18,35.2S12.86,42.9,19.71,49.75Z"/><path class="cls-3" d="M40.24,100.24a5.42,5.42,0,0,0-.48-.26,6.1,6.1,0,0,0-.84-.33c-4.54-1.49-11.84.83-14.93,3.16a23,23,0,0,1-6.8,2.75c-3.53,1-6.9,1.53-6.9,1.53s3.43,9.41,15.41,9.41,14.54-7.7,17.11-7.7a3,3,0,0,1,2.57,1.71c.86,1.71,4.06,3.17,6,1.71,3.42-2.57,0-5.13,0-5.13"/><path class="cls-3" d="M39.39,99.38a4.66,4.66,0,0,0-.22-.45C36.92,95.17,27.06,96,18,96.82,8.58,97.67,4.3,92.54,4.3,92.54s0,10.27,12.84,12.84"/><path class="cls-3" d="M4.3,92.54a24,24,0,0,0,10.27-.86l2.58-.84c4.27-1.35,9.49-2.65,13.62-1.53a8.94,8.94,0,0,1,1.77.66"/><path class="cls-3" d="M17.14,90.83C2.59,87.4,4.3,72,4.3,72s4.28,7.7,12,9.41,12,3.43,14.55,7.71"/><path class="cls-3" d="M4.3,72a27.6,27.6,0,0,0,8.59,2.47,15.62,15.62,0,0,0,1.68.1,35.19,35.19,0,0,1,12.67,2.91,4.18,4.18,0,0,1,1.88,1.37"/><path class="cls-3" d="M27.41,77.13S26.55,70.29,18,66,9.44,49.75,9.44,49.75-1.47,64.21,12.89,74.47l.12.1"/><path class="cls-3" d="M9.44,49.75a29.58,29.58,0,0,0,3.39,4.3,15.83,15.83,0,0,0,6,4.26c3.3,1.1,6.62,4,8.55,5.89,1.07,1,1.72,1.81,1.72,1.81"/><path class="cls-3" d="M27.41,64.3a.67.67,0,0,0,0-.1,27.16,27.16,0,0,0-7.69-14.45C12.86,42.9,18,35.2,18,35.2S9.44,44.62,12.86,54"/><path class="cls-3" d="M18,35.2a8.08,8.08,0,0,0,3.43,6c.44.34.93.73,1.44,1.17,2.89,2.49,6.55,6.56,7.65,10.89a10.56,10.56,0,0,1,.32,2.49"/><path class="cls-3" d="M30,29.21l0,0a11,11,0,0,0-1.51,5.56A11.12,11.12,0,0,0,30,40.34c3.42,6,.85,12.83.85,12.83"/><path class="cls-3" d="M23.13,42.05c-.83-7.47,6.4-12.53,6.83-12.82"/><path class="cls-3" d="M37.68,46.33s-.11-.61-.38-1.58a22.57,22.57,0,0,0-3.9-7.84,17.21,17.21,0,0,1-1.13-1.55A12.51,12.51,0,0,1,30,29.21"/><path class="cls-3" d="M32.54,35.2s.86-5.13,8.56-7.7c-4.28,3.42,0,10.27-3.42,17.12"/><path class="cls-3" d="M41.1,27.5s0,6,1.71,9.41S43.67,47.18,37.68,54C31.88,60.66,25.26,80.16,42,99.28c.53.61,1.08,1.21,1.66,1.82,3.23,2.68,6.47,4.7,7.56,6.05.64.78.55,1.33-.72,1.65-3.42.85-6.84-3.42-6.84-3.42-4.28-1.72-7.7,0-18,3.42s-15.41-1.71-15.41-1.71"/><path class="cls-1" d="M59.26,100.81s3,2.21,0,4.43c-1.67,1.26-4.43,0-5.17-1.48a2.63,2.63,0,0,0-2.22-1.47c-2.21,0-4.43,6.64-14.77,6.64s-13.29-8.12-13.29-8.12,4.43,4.43,13.29,1.48,11.82-4.43,15.51-3c0,0,3,3.69,5.91,3,1.09-.28,1.17-.76.62-1.43Z"/><path class="cls-2" d="M49.24,94.67l1.94-.59c.46.52.93,1,1.43,1.56,2.79,2.32,5.58,4.06,6.53,5.22.55.67.47,1.15-.62,1.43-3,.73-5.91-3-5.91-3-3.69-1.47-6.64,0-15.51,3s-13.29-1.48-13.29-1.48,2.91-.49,6-1.31a19.77,19.77,0,0,0,5.86-2.38c2.67-2,9-4,12.88-2.73A5.8,5.8,0,0,1,49.24,94.67Z"/><path class="cls-2" d="M38.57,63.8a23.4,23.4,0,0,0-6.63-12.46C26,45.43,30.46,38.79,30.46,38.79A7,7,0,0,0,33.41,44c.39.28.81.62,1.25,1,2.49,2.15,5.65,5.66,6.59,9.4l.28-.07s2.22-5.9-.73-11.07a9.43,9.43,0,0,1,0-9.59s0,0,0,0a10.75,10.75,0,0,0,2,5.3,13.61,13.61,0,0,0,1,1.34A19.68,19.68,0,0,1,47.12,47l.32-.12c3-5.91-.74-11.82,3-14.77,0,0,0,5.17,1.47,8.12s.74,8.86-4.43,14.77c-5,5.72-10.71,22.55,3.74,39.05l-1.94.59a5.8,5.8,0,0,0-.73-.28l.22-.62C46.78,90.52,38.28,91.24,30.46,92c-8.12.74-11.81-3.69-11.81-3.69a20.61,20.61,0,0,0,8.86-.74c.69-.23,1.44-.48,2.22-.72,3.68-1.17,8.19-2.29,11.75-1.33l.05-.17c-2.21-3.69-5.9-5.16-12.55-6.64s-10.33-8.12-10.33-8.12a24,24,0,0,0,7.4,2.13,14.13,14.13,0,0,0,1.46.08,30.47,30.47,0,0,1,10.92,2.51l.15-.29s-.74-5.91-8.12-9.6-7.38-14-7.38-14A25.31,25.31,0,0,0,26,55.05a13.53,13.53,0,0,0,5.19,3.67C34.05,59.68,36.91,62.16,38.57,63.8Z"/><path class="cls-1" d="M48.73,93.77l-.22.62c-3.91-1.28-10.21.72-12.88,2.73a19.77,19.77,0,0,1-5.86,2.38l-.05-.17C18.65,97.12,18.65,88.26,18.65,88.26S22.34,92.69,30.46,92C38.28,91.24,46.78,90.52,48.73,93.77Z"/><path class="cls-1" d="M50.4,32.14c-3.7,3,0,8.86-3,14.77l-.32.12a19.68,19.68,0,0,0-3.37-6.77,13.61,13.61,0,0,1-1-1.34l.23-.13S43.75,34.36,50.4,32.14Z"/><path class="cls-1" d="M40.8,43.22c3,5.17.73,11.07.73,11.07l-.28.07c-.94-3.74-4.1-7.25-6.59-9.4l.23-.27c-.72-6.44,5.52-10.81,5.89-11.06a9.43,9.43,0,0,0,0,9.59Z"/><path class="cls-1" d="M41.53,85.3l-.05.17c-3.56-1-8.07.16-11.75,1.33v0c-12.55-3-11.07-16.24-11.07-16.24S22.34,77.18,29,78.66,39.32,81.61,41.53,85.3Z"/><path class="cls-1" d="M38.58,75l-.15.29a30.47,30.47,0,0,0-10.92-2.51,14.13,14.13,0,0,1-1.46-.08c-12.38-8.85-3-21.33-3-21.33s0,10.34,7.38,14S38.58,75,38.58,75Z"/><path class="cls-1" d="M31.94,51.34A23.4,23.4,0,0,1,38.57,63.8c-1.66-1.64-4.52-4.12-7.37-5.08A13.53,13.53,0,0,1,26,55.05l0,0c-3-8.12,4.43-16.24,4.43-16.24S26,45.43,31.94,51.34Z"/><path class="cls-3" d="M49.66,94.9l-.42-.23a5.8,5.8,0,0,0-.73-.28c-3.91-1.28-10.21.72-12.88,2.73a19.77,19.77,0,0,1-5.86,2.38c-3.05.82-6,1.31-6,1.31s3,8.12,13.29,8.12,12.56-6.64,14.77-6.64a2.63,2.63,0,0,1,2.22,1.47c.74,1.48,3.5,2.74,5.17,1.48,3-2.22,0-4.43,0-4.43"/><path class="cls-3" d="M48.92,94.16a3.49,3.49,0,0,0-.19-.39C46.78,90.52,38.28,91.24,30.46,92c-8.12.74-11.81-3.69-11.81-3.69s0,8.86,11.07,11.07"/><path class="cls-3" d="M18.65,88.26a20.61,20.61,0,0,0,8.86-.74c.69-.23,1.44-.48,2.22-.72,3.68-1.17,8.19-2.29,11.75-1.33A8.27,8.27,0,0,1,43,86"/><path class="cls-3" d="M29.72,86.78c-12.55-3-11.07-16.24-11.07-16.24S22.34,77.18,29,78.66s10.34,3,12.55,6.64"/><path class="cls-3" d="M18.65,70.54a24,24,0,0,0,7.4,2.13,14.13,14.13,0,0,0,1.46.08,30.47,30.47,0,0,1,10.92,2.51,3.71,3.71,0,0,1,1.63,1.18"/><path class="cls-3" d="M38.58,75s-.74-5.91-8.12-9.6-7.38-14-7.38-14-9.41,12.48,3,21.33l.11.08"/><path class="cls-3" d="M23.08,51.34A25.31,25.31,0,0,0,26,55.05a13.53,13.53,0,0,0,5.19,3.67c2.85,1,5.71,3.44,7.37,5.08.93.91,1.49,1.57,1.49,1.57"/><path class="cls-3" d="M38.58,63.89a.62.62,0,0,0,0-.09,23.4,23.4,0,0,0-6.63-12.46C26,45.43,30.46,38.79,30.46,38.79S23.08,46.91,26,55"/><path class="cls-3" d="M30.46,38.79A7,7,0,0,0,33.41,44c.39.28.81.62,1.25,1,2.49,2.15,5.65,5.66,6.59,9.4a8.75,8.75,0,0,1,.28,2.15"/><path class="cls-3" d="M40.8,33.62s0,0,0,0a9.43,9.43,0,0,0,0,9.59c3,5.17.73,11.07.73,11.07"/><path class="cls-3" d="M34.89,44.69c-.72-6.44,5.52-10.81,5.89-11.06"/><path class="cls-3" d="M47.44,48.39s-.09-.53-.32-1.36a19.68,19.68,0,0,0-3.37-6.77,13.61,13.61,0,0,1-1-1.34,10.75,10.75,0,0,1-2-5.3"/><path class="cls-3" d="M43,38.79s.74-4.43,7.39-6.65c-3.7,3,0,8.86-3,14.77"/><path class="cls-3" d="M50.4,32.14s0,5.17,1.47,8.12.74,8.86-4.43,14.77c-5,5.72-10.71,22.55,3.74,39.05.46.52.93,1,1.43,1.56,2.79,2.32,5.58,4.06,6.53,5.22.55.67.47,1.15-.62,1.43-3,.73-5.91-3-5.91-3-3.69-1.47-6.64,0-15.51,3s-13.29-1.48-13.29-1.48"/><path class="cls-1" d="M94.41,107.09s-3.42,2.56,0,5.13c2,1.46,5.14,0,6-1.71A3,3,0,0,1,103,108.8c2.57,0,5.14,7.7,17.12,7.7s15.4-9.41,15.4-9.41-5.13,5.13-15.4,1.71-13.7-5.14-18-3.42c0,0-3.43,4.27-6.85,3.42-1.27-.32-1.36-.87-.72-1.65Z"/><path class="cls-2" d="M106,100l-2.25-.7c-.54.61-1.08,1.21-1.66,1.82-3.24,2.68-6.47,4.7-7.57,6.05-.64.78-.55,1.33.72,1.65,3.42.85,6.85-3.42,6.85-3.42,4.27-1.72,7.7,0,18,3.42s15.4-1.71,15.4-1.71-3.37-.57-6.9-1.53a22.92,22.92,0,0,1-6.79-2.75c-3.1-2.33-10.4-4.65-14.94-3.16A5.52,5.52,0,0,0,106,100Z"/><path class="cls-2" d="M118.55,77.48l-.18-.35s.86-6.84,9.42-11.12,8.56-16.26,8.56-16.26a30.11,30.11,0,0,1-3.4,4.3,15.83,15.83,0,0,1-6,4.26c-3.3,1.1-6.61,4-8.55,5.89a27.13,27.13,0,0,1,7.7-14.45c6.84-6.85,1.71-14.55,1.71-14.55a8.09,8.09,0,0,1-3.42,6c-.45.34-.94.73-1.45,1.17-2.88,2.49-6.55,6.56-7.64,10.89l-.33-.08s-2.57-6.84.86-12.83a11.1,11.1,0,0,0,1.52-5.55,11,11,0,0,0-1.51-5.56v0a12.47,12.47,0,0,1-2.3,6.15,17.21,17.21,0,0,1-1.13,1.55,22.57,22.57,0,0,0-3.9,7.84l-.37-.13c-3.43-6.85.85-13.7-3.43-17.12,0,0,0,6-1.71,9.41s-.85,10.27,5.14,17.12c5.8,6.63,12.41,26.13-4.33,45.25l2.25.7a5.52,5.52,0,0,1,.83-.33l-.24-.72c2.25-3.76,12.11-2.93,21.17-2.11,9.41.85,13.69-4.28,13.69-4.28a24,24,0,0,1-10.27-.86l-2.57-.84c-4.27-1.35-9.49-2.65-13.63-1.53l-.06-.19c2.57-4.28,6.85-6,14.55-7.71s12-9.41,12-9.41a27.79,27.79,0,0,1-8.57,2.47,16,16,0,0,1-1.7.1A35.09,35.09,0,0,0,118.55,77.48Z"/><path class="cls-1" d="M106.62,98.93l.24.72c4.54-1.49,11.84.83,14.94,3.16a22.92,22.92,0,0,0,6.79,2.75l0-.18c12.84-2.57,12.84-12.84,12.84-12.84s-4.28,5.13-13.69,4.28C118.73,96,108.87,95.17,106.62,98.93Z"/><path class="cls-1" d="M104.68,27.5c4.28,3.42,0,10.27,3.43,17.12l.37.13a22.57,22.57,0,0,1,3.9-7.84,17.21,17.21,0,0,0,1.13-1.55l-.27-.16S112.38,30.07,104.68,27.5Z"/><path class="cls-1" d="M115.81,40.34c-3.43,6-.86,12.83-.86,12.83l.33.08c1.09-4.33,4.76-8.4,7.64-10.89l-.27-.31c.83-7.47-6.39-12.53-6.83-12.82a11,11,0,0,1,1.51,5.56A11.1,11.1,0,0,1,115.81,40.34Z"/><path class="cls-1" d="M115,89.12l.06.19c4.14-1.12,9.36.18,13.63,1.53h0C143.19,87.4,141.48,72,141.48,72s-4.28,7.7-12,9.41S117.52,84.84,115,89.12Z"/><path class="cls-1" d="M118.37,77.13l.18.35a35.09,35.09,0,0,1,12.66-2.91,16,16,0,0,0,1.7-.1c14.35-10.26,3.44-24.72,3.44-24.72s0,12-8.56,16.26S118.37,77.13,118.37,77.13Z"/><path class="cls-1" d="M126.08,49.75a27.13,27.13,0,0,0-7.7,14.45c1.94-1.91,5.25-4.79,8.55-5.89a15.83,15.83,0,0,0,6-4.26l0,0c3.43-9.41-5.13-18.83-5.13-18.83S132.92,42.9,126.08,49.75Z"/><path class="cls-3" d="M105.54,100.24c.15-.09.32-.18.49-.26a5.52,5.52,0,0,1,.83-.33c4.54-1.49,11.84.83,14.94,3.16a22.92,22.92,0,0,0,6.79,2.75c3.53,1,6.9,1.53,6.9,1.53s-3.42,9.41-15.4,9.41-14.55-7.7-17.12-7.7a3,3,0,0,0-2.57,1.71c-.85,1.71-4,3.17-6,1.71-3.42-2.57,0-5.13,0-5.13"/><path class="cls-3" d="M106.39,99.38a3.19,3.19,0,0,1,.23-.45c2.25-3.76,12.11-2.93,21.17-2.11,9.41.85,13.69-4.28,13.69-4.28s0,10.27-12.84,12.84"/><path class="cls-3" d="M141.48,92.54a24,24,0,0,1-10.27-.86l-2.57-.84c-4.27-1.35-9.49-2.65-13.63-1.53a9.43,9.43,0,0,0-1.77.66"/><path class="cls-3" d="M128.64,90.83C143.19,87.4,141.48,72,141.48,72s-4.28,7.7-12,9.41-12,3.43-14.55,7.71"/><path class="cls-3" d="M141.48,72a27.79,27.79,0,0,1-8.57,2.47,16,16,0,0,1-1.7.1,35.09,35.09,0,0,0-12.66,2.91,4.23,4.23,0,0,0-1.89,1.37"/><path class="cls-3" d="M118.37,77.13s.86-6.84,9.42-11.12,8.56-16.26,8.56-16.26,10.91,14.46-3.44,24.72l-.13.1"/><path class="cls-3" d="M136.35,49.75a30.11,30.11,0,0,1-3.4,4.3,15.83,15.83,0,0,1-6,4.26c-3.3,1.1-6.61,4-8.55,5.89-1.07,1-1.72,1.81-1.72,1.81"/><path class="cls-3" d="M118.37,64.3a.67.67,0,0,1,0-.1,27.13,27.13,0,0,1,7.7-14.45c6.84-6.85,1.71-14.55,1.71-14.55s8.56,9.42,5.13,18.83"/><path class="cls-3" d="M127.79,35.2a8.09,8.09,0,0,1-3.42,6c-.45.34-.94.73-1.45,1.17-2.88,2.49-6.55,6.56-7.64,10.89a10.08,10.08,0,0,0-.33,2.49"/><path class="cls-3" d="M115.81,29.21v0a11,11,0,0,1,1.51,5.56,11.1,11.1,0,0,1-1.52,5.55c-3.43,6-.86,12.83-.86,12.83"/><path class="cls-3" d="M122.65,42.05c.83-7.47-6.39-12.53-6.83-12.82"/><path class="cls-3" d="M108.11,46.33s.1-.61.37-1.58a22.57,22.57,0,0,1,3.9-7.84,17.21,17.21,0,0,0,1.13-1.55,12.47,12.47,0,0,0,2.3-6.15"/><path class="cls-3" d="M113.24,35.2s-.86-5.13-8.56-7.7c4.28,3.42,0,10.27,3.43,17.12"/><path class="cls-3" d="M104.68,27.5s0,6-1.71,9.41-.85,10.27,5.14,17.12c5.8,6.63,12.41,26.13-4.33,45.25-.54.61-1.08,1.21-1.66,1.82-3.24,2.68-6.47,4.7-7.57,6.05-.64.78-.55,1.33.72,1.65,3.42.85,6.85-3.42,6.85-3.42,4.27-1.72,7.7,0,18,3.42s15.4-1.71,15.4-1.71"/><path class="cls-1" d="M86.53,100.81s-3,2.21,0,4.43c1.67,1.26,4.43,0,5.17-1.48a2.63,2.63,0,0,1,2.22-1.47c2.21,0,4.43,6.64,14.77,6.64S122,100.81,122,100.81s-4.43,4.43-13.29,1.48-11.82-4.43-15.51-3c0,0-3,3.69-5.91,3-1.09-.28-1.17-.76-.62-1.43Z"/><path class="cls-2" d="M96.55,94.67l-1.94-.59c-.46.52-.93,1-1.43,1.56-2.79,2.32-5.58,4.06-6.53,5.22-.55.67-.47,1.15.62,1.43,3,.73,5.91-3,5.91-3,3.69-1.47,6.65,0,15.51,3S122,100.81,122,100.81s-2.91-.49-6-1.31a19.77,19.77,0,0,1-5.86-2.38c-2.67-2-9-4-12.88-2.73A5.8,5.8,0,0,0,96.55,94.67Z"/><path class="cls-2" d="M107.22,63.8a23.4,23.4,0,0,1,6.63-12.46c5.91-5.91,1.48-12.55,1.48-12.55a7,7,0,0,1-3,5.17c-.39.28-.81.62-1.25,1-2.49,2.15-5.65,5.66-6.59,9.4l-.28-.07s-2.22-5.9.73-11.07a9.43,9.43,0,0,0,0-9.59s0,0,0,0a10.75,10.75,0,0,1-2,5.3,13.61,13.61,0,0,1-1,1.34A19.68,19.68,0,0,0,98.67,47l-.32-.12c-3-5.91.74-11.82-3-14.77,0,0,0,5.17-1.47,8.12S93.18,49.12,98.35,55c5,5.72,10.71,22.55-3.74,39.05l1.94.59a5.8,5.8,0,0,1,.73-.28l-.22-.62c2-3.25,10.45-2.53,18.27-1.82,8.12.74,11.81-3.69,11.81-3.69a20.61,20.61,0,0,1-8.86-.74c-.69-.23-1.44-.48-2.22-.72-3.68-1.17-8.19-2.29-11.75-1.33l0-.17c2.21-3.69,5.9-5.16,12.55-6.64s10.33-8.12,10.33-8.12a24,24,0,0,1-7.4,2.13,14.13,14.13,0,0,1-1.46.08,30.47,30.47,0,0,0-10.92,2.51l-.15-.29s.74-5.91,8.12-9.6,7.38-14,7.38-14a25.31,25.31,0,0,1-2.93,3.71,13.53,13.53,0,0,1-5.19,3.67C111.74,59.68,108.88,62.16,107.22,63.8Z"/><path class="cls-1" d="M97.06,93.77l.22.62c3.91-1.28,10.21.72,12.88,2.73A19.77,19.77,0,0,0,116,99.5l0-.17c11.07-2.21,11.07-11.07,11.07-11.07s-3.69,4.43-11.81,3.69C107.51,91.24,99,90.52,97.06,93.77Z"/><path class="cls-1" d="M95.39,32.14c3.7,3,0,8.86,3,14.77l.32.12A19.68,19.68,0,0,1,102,40.26a13.61,13.61,0,0,0,1-1.34l-.23-.13S102,34.36,95.39,32.14Z"/><path class="cls-1" d="M105,43.22c-2.95,5.17-.73,11.07-.73,11.07l.28.07c.94-3.74,4.1-7.25,6.59-9.4l-.23-.27c.72-6.44-5.52-10.81-5.89-11.06a9.43,9.43,0,0,1,0,9.59Z"/><path class="cls-1" d="M104.26,85.3l0,.17c3.56-1,8.07.16,11.75,1.33v0c12.55-3,11.07-16.24,11.07-16.24s-3.69,6.64-10.33,8.12S106.47,81.61,104.26,85.3Z"/><path class="cls-1" d="M107.21,75l.15.29a30.47,30.47,0,0,1,10.92-2.51,14.13,14.13,0,0,0,1.46-.08c12.38-8.85,3-21.33,3-21.33s0,10.34-7.38,14S107.21,75,107.21,75Z"/><path class="cls-1" d="M113.85,51.34a23.4,23.4,0,0,0-6.63,12.46c1.66-1.64,4.52-4.12,7.37-5.08a13.53,13.53,0,0,0,5.19-3.67l0,0c2.95-8.12-4.43-16.24-4.43-16.24S119.76,45.43,113.85,51.34Z"/><path class="cls-3" d="M96.13,94.9l.42-.23a5.8,5.8,0,0,1,.73-.28c3.91-1.28,10.21.72,12.88,2.73A19.77,19.77,0,0,0,116,99.5c3,.82,6,1.31,6,1.31s-3,8.12-13.29,8.12-12.56-6.64-14.77-6.64a2.63,2.63,0,0,0-2.22,1.47c-.74,1.48-3.5,2.74-5.17,1.48-3-2.22,0-4.43,0-4.43"/><path class="cls-3" d="M96.87,94.16a3.49,3.49,0,0,1,.19-.39c2-3.25,10.45-2.53,18.27-1.82,8.12.74,11.81-3.69,11.81-3.69s0,8.86-11.07,11.07"/><path class="cls-3" d="M127.14,88.26a20.61,20.61,0,0,1-8.86-.74c-.69-.23-1.44-.48-2.22-.72-3.68-1.17-8.19-2.29-11.75-1.33a8.27,8.27,0,0,0-1.53.57"/><path class="cls-3" d="M116.07,86.78c12.55-3,11.07-16.24,11.07-16.24s-3.69,6.64-10.33,8.12-10.34,3-12.55,6.64"/><path class="cls-3" d="M127.14,70.54a24,24,0,0,1-7.4,2.13,14.13,14.13,0,0,1-1.46.08,30.47,30.47,0,0,0-10.92,2.51,3.71,3.71,0,0,0-1.63,1.18"/><path class="cls-3" d="M107.21,75s.74-5.91,8.12-9.6,7.38-14,7.38-14,9.41,12.48-3,21.33l-.11.08"/><path class="cls-3" d="M122.71,51.34a25.31,25.31,0,0,1-2.93,3.71,13.53,13.53,0,0,1-5.19,3.67c-2.85,1-5.71,3.44-7.37,5.08-.93.91-1.49,1.57-1.49,1.57"/><path class="cls-3" d="M107.21,63.89a.62.62,0,0,1,0-.09,23.4,23.4,0,0,1,6.63-12.46c5.91-5.91,1.48-12.55,1.48-12.55s7.38,8.12,4.43,16.24"/><path class="cls-3" d="M115.33,38.79a7,7,0,0,1-3,5.17c-.39.28-.81.62-1.25,1-2.49,2.15-5.65,5.66-6.59,9.4a8.75,8.75,0,0,0-.28,2.15"/><path class="cls-3" d="M105,33.62s0,0,0,0a9.43,9.43,0,0,1,0,9.59c-2.95,5.17-.73,11.07-.73,11.07"/><path class="cls-3" d="M110.9,44.69c.72-6.44-5.52-10.81-5.89-11.06"/><path class="cls-3" d="M98.35,48.39s.09-.53.32-1.36A19.68,19.68,0,0,1,102,40.26a13.61,13.61,0,0,0,1-1.34,10.75,10.75,0,0,0,2-5.3"/><path class="cls-3" d="M102.78,38.79s-.74-4.43-7.39-6.65c3.7,3,0,8.86,3,14.77"/><path class="cls-3" d="M95.39,32.14s0,5.17-1.47,8.12S93.18,49.12,98.35,55c5,5.72,10.71,22.55-3.74,39.05-.46.52-.93,1-1.43,1.56-2.79,2.32-5.58,4.06-6.53,5.22-.55.67-.47,1.15.62,1.43,3,.73,5.91-3,5.91-3,3.69-1.47,6.65,0,15.51,3S122,100.81,122,100.81"/><path class="cls-4" d="M94.23,71.44H86.61a32,32,0,0,0-.75-7H93l.13,0A22.08,22.08,0,0,1,94.23,71.44Z"/><path class="cls-4" d="M86.61,71.44h7.62a22.08,22.08,0,0,1-1.14,7l-.13,0h-7.1A32.21,32.21,0,0,0,86.61,71.44Z"/><path class="cls-4" d="M93.09,64.41l-.13,0h-7.1a26.67,26.67,0,0,0-2.18-6.35h6.1A21.93,21.93,0,0,1,93.09,64.41Z"/><path class="cls-4" d="M93,78.43l.13,0a22.12,22.12,0,0,1-3.31,6.31h-6.1a27,27,0,0,0,2.18-6.35Z"/><path class="cls-4" d="M89.78,58.11h-6.1a16.6,16.6,0,0,0-7.22-7.84l1.08-.36A22.19,22.19,0,0,1,89.78,58.11Z"/><path class="cls-4" d="M83.68,84.78h6.1a22.27,22.27,0,0,1-14.6,8.67v-.32C78.64,92,81.63,88.94,83.68,84.78Z"/><path class="cls-4" d="M86.61,71.44H78.35c0-2.44-.11-4.79-.32-7h7.83A32,32,0,0,1,86.61,71.44Z"/><path class="cls-4" d="M78.35,71.44h8.26a32.21,32.21,0,0,1-.75,7H78C78.24,76.23,78.35,73.88,78.35,71.44Z"/><path class="cls-4" d="M85.86,64.46H78a54.56,54.56,0,0,0-1-6.35h6.6A26.67,26.67,0,0,1,85.86,64.46Z"/><path class="cls-4" d="M78,78.43h7.83a27,27,0,0,1-2.18,6.35h-6.6A55.22,55.22,0,0,0,78,78.43Z"/><path class="cls-4" d="M74.91,7.94c12.11.21,12,11,10.69,17.71a6.32,6.32,0,0,1-6.2,5.15l-2.82,2.82a5.46,5.46,0,0,0-.78.35,1.2,1.2,0,0,1-1-.44,83.25,83.25,0,0,0,.07-14.81,5.91,5.91,0,0,0,3.83-3.16c1.78-4.77-2.58-7-3.83-7.5a.06.06,0,0,1,0-.08A.08.08,0,0,1,74.91,7.94Z"/><path class="cls-5" d="M78.35,33.34c6.35,0,7,3.17,7,3.17s-7.62,1.27-7.62,6.35v7l-.18.06a22.26,22.26,0,0,0-5.13-.69H72V42.86h1.43q.81-4,1.25-8A4.94,4.94,0,0,1,75.8,34a1.14,1.14,0,0,0,.78-.35A5.48,5.48,0,0,1,78.35,33.34Z"/><path class="cls-4" d="M83.68,58.11h-6.6a21.12,21.12,0,0,0-2.63-7.17l2-.67A16.6,16.6,0,0,1,83.68,58.11Z"/><path class="cls-4" d="M77.08,84.78h6.6c-2.05,4.16-5,7.19-8.5,8.35V91.76l-1.05.63C75.31,90.92,76.34,88.24,77.08,84.78Z"/><path class="cls-5" d="M79.62,112.08,72,130.49V93.67h.37a23.51,23.51,0,0,0,2.81-.21v12.92C75.18,109.54,79.62,112.08,79.62,112.08Z"/><path class="cls-4" d="M78.35,71.44H65.65c0-2.44.11-4.79.32-7H78C78.24,66.65,78.35,69,78.35,71.44Z"/><path class="cls-4" d="M65.65,71.44h12.7c0,2.44-.11,4.79-.32,7H66C65.76,76.23,65.65,73.88,65.65,71.44Z"/><path class="cls-4" d="M78,64.46H66a54.56,54.56,0,0,1,1-6.35H77.08A54.56,54.56,0,0,1,78,64.46Z"/><path class="cls-4" d="M66,78.43H78a55.22,55.22,0,0,1-1,6.35H66.92A55.22,55.22,0,0,1,66,78.43Z"/><path class="cls-4" d="M77.54,49.91l-1.08.36a10.26,10.26,0,0,0-4-1.05A22.26,22.26,0,0,1,77.54,49.91Z"/><path class="cls-4" d="M77.08,58.11H66.92c1-4.77,2.58-8,4.36-8.75l.72-.15v2.54l2.45-.81A21.12,21.12,0,0,1,77.08,58.11Z"/><path class="cls-4" d="M66.92,84.78H77.08c-.74,3.46-1.77,6.14-3,7.61L72,93.67l-1.91-1.91-.47.29A21,21,0,0,1,66.92,84.78Z"/><path class="cls-4" d="M76.46,50.27l-2,.67A3.18,3.18,0,0,0,72,49.21h.41A10.26,10.26,0,0,1,76.46,50.27Z"/><path class="cls-4" d="M76.58,33.62a1.14,1.14,0,0,1-.78.35A5.46,5.46,0,0,1,76.58,33.62Z"/><path class="cls-4" d="M75.18,93.13v.32a23.51,23.51,0,0,1-2.81.21A9.64,9.64,0,0,0,75.18,93.13Z"/><path class="cls-4" d="M75.18,91.76v1.37a9.64,9.64,0,0,1-2.81.53H72a2.86,2.86,0,0,0,2.13-1.28Z"/><path class="cls-4" d="M74.88,18.72a83.25,83.25,0,0,1-.07,14.81,1.17,1.17,0,0,1-.26-.75V27.34a4.8,4.8,0,0,0-1.43-3.43,4.85,4.85,0,0,0-8.28,3.43v.35a.47.47,0,0,1,0,.17,28.28,28.28,0,0,1,.94-8H66A27.36,27.36,0,0,0,74.88,18.72Z"/><path class="cls-6" d="M74.81,33.53c0,.43-.08.86-.13,1.29-2.68,2.68-2.68,8-2.68,8a9.81,9.81,0,0,1-1.57-.12,25.78,25.78,0,0,1-5.61-14.88.47.47,0,0,0,0-.17v-.35a4.85,4.85,0,0,1,8.28-3.43,4.8,4.8,0,0,1,1.43,3.43v5.44A1.17,1.17,0,0,0,74.81,33.53ZM72,27.31a2.23,2.23,0,1,0-2.22,2.22A2.23,2.23,0,0,0,72,27.31Z"/><path class="cls-4" d="M74.54,7.62a3,3,0,0,1,0,.31,2.55,2.55,0,0,1-.89,1.64c-.07-.33-.13-.67-.2-1H70.52c-.14.25-.27.5-.41.74a2.54,2.54,0,1,1,4.43-1.69Z"/><path class="cls-4" d="M74.45,50.94,72,51.75V49.21A3.18,3.18,0,0,1,74.45,50.94Z"/><path class="cls-4" d="M72,93.67l2.13-1.28A2.86,2.86,0,0,1,72,93.67Z"/><path class="cls-6" d="M73.63,9.57a87,87,0,0,1,1.25,9.15A27.36,27.36,0,0,1,66,19.87h-.26A47,47,0,0,1,70.11,9.31a2.49,2.49,0,0,0,1.89.85A2.52,2.52,0,0,0,73.63,9.57Z"/><path class="cls-5" d="M74.68,34.82q-.44,4-1.25,8H72S72,37.5,74.68,34.82Z"/><path class="cls-4" d="M73.43,8.57c.07.33.13.67.2,1a2.52,2.52,0,0,1-1.63.59,2.49,2.49,0,0,1-1.89-.85c.14-.24.27-.49.41-.74Z"/><path class="cls-7" d="M72,130.49h0A161.65,161.65,0,0,1,64.38,114c2.54-3.81,2.54-15.24-.64-18.42,1.27,0,3.18-1.9,3.18-1.9l.72-.43a21.24,21.24,0,0,0,4,.42H72Z"/><path class="cls-7" d="M72,42.86v6.35h-.37a21.88,21.88,0,0,0-6.31,1l-2.21-1.66,5.08-1.27S65.65,39.69,58,43.5c0-5.08,4.44-7.62,4.44-7.62s2.16,5.92,8,6.86l.09.12Z"/><path class="cls-4" d="M72,42.86H70.52l-.09-.12A9.81,9.81,0,0,0,72,42.86Z"/><path class="cls-4" d="M72,49.21l-.72.15A2,2,0,0,1,72,49.21Z"/><path class="cls-4" d="M71.63,49.22H72a2,2,0,0,0-.72.15L68.2,50A10.11,10.11,0,0,1,71.63,49.22Z"/><path class="cls-4" d="M72,93.67h-.41a10.17,10.17,0,0,1-3.4-.75l1.43-.86A3.12,3.12,0,0,0,72,93.67Z"/><path class="cls-4" d="M70.09,91.76,72,93.67a3.12,3.12,0,0,1-2.38-1.62Z"/><circle class="cls-8" cx="69.78" cy="27.31" r="2.22"/><path class="cls-4" d="M68.2,50l3.08-.62c-1.78.71-3.34,4-4.36,8.75h-6.6C62.25,54.19,65,51.28,68.2,50Z"/><path class="cls-4" d="M69.62,92.05l-1.43.86c-3.19-1.31-5.94-4.22-7.87-8.13h6.6A21,21,0,0,0,69.62,92.05Z"/><path class="cls-4" d="M71.63,49.22A10.11,10.11,0,0,0,68.2,50l-2.55.5-.33-.24A21.88,21.88,0,0,1,71.63,49.22Z"/><path class="cls-4" d="M68.19,92.91a10.17,10.17,0,0,0,3.4.75,21.24,21.24,0,0,1-4-.42Z"/><path class="cls-4" d="M65.65,50.48,68.2,50c-3.19,1.3-6,4.21-7.88,8.13h-6.1a22.17,22.17,0,0,1,11.1-7.87Z"/><path class="cls-4" d="M68.19,92.91l-.55.33a22.28,22.28,0,0,1-13.42-8.46h6.1C62.25,88.69,65,91.6,68.19,92.91Z"/><path class="cls-4" d="M60.32,58.11h6.6a54.56,54.56,0,0,0-1,6.35H58.14A26.67,26.67,0,0,1,60.32,58.11Z"/><path class="cls-4" d="M66.92,84.78h-6.6a27,27,0,0,1-2.18-6.35H66A55.22,55.22,0,0,0,66.92,84.78Z"/><path class="cls-4" d="M58.14,64.46H66c-.21,2.19-.32,4.54-.32,7H57.39A32,32,0,0,1,58.14,64.46Z"/><path class="cls-4" d="M66,78.43H58.14a32.21,32.21,0,0,1-.75-7h8.26C65.65,73.88,65.76,76.23,66,78.43Z"/><path class="cls-4" d="M65.76,19.88a28.28,28.28,0,0,0-.94,8,1,1,0,0,1-2-.17V23.08A3.2,3.2,0,0,1,65.76,19.88Z"/><path class="cls-4" d="M54.22,58.11h6.1a26.67,26.67,0,0,0-2.18,6.35H51l-.13,0A21.93,21.93,0,0,1,54.22,58.11Z"/><path class="cls-4" d="M60.32,84.78h-6.1a22.12,22.12,0,0,1-3.31-6.31l.13,0h7.1A27,27,0,0,0,60.32,84.78Z"/><path class="cls-4" d="M51,64.46h7.1a32,32,0,0,0-.75,7H49.77a22.08,22.08,0,0,1,1.14-7Z"/><path class="cls-4" d="M58.14,78.43H51l-.13,0a22.08,22.08,0,0,1-1.14-7h7.62A32.21,32.21,0,0,0,58.14,78.43Z"/><path class="cls-9" d="M74.88,18.72a87,87,0,0,0-1.25-9.15"/><path class="cls-9" d="M74.68,34.82c0-.43.09-.86.13-1.29"/><path class="cls-9" d="M64.82,27.86a25.78,25.78,0,0,0,5.61,14.88"/><path class="cls-9" d="M70.11,9.31a47,47,0,0,0-4.35,10.57"/><path class="cls-9" d="M72,130.49l7.62-18.41s-4.44-2.54-4.44-5.71V93.45"/><path class="cls-9" d="M67.64,93.24l-.72.43s-1.91,1.9-3.18,1.9c3.18,3.18,3.18,14.61.64,18.42A161.65,161.65,0,0,0,72,130.5h0V93.67"/><path class="cls-9" d="M65.32,50.24l-2.21-1.66,5.08-1.27S65.65,39.69,58,43.5c0-5.08,4.44-7.62,4.44-7.62s2.16,5.92,8,6.86a9.81,9.81,0,0,0,1.57.12"/><path class="cls-9" d="M72,49.21V42.86s0-5.36,2.68-8A4.94,4.94,0,0,1,75.8,34"/><path class="cls-9" d="M76.58,33.62a5.48,5.48,0,0,1,1.77-.28c6.35,0,7,3.17,7,3.17s-7.62,1.27-7.62,6.35v7l-.18.06"/><path class="cls-9" d="M72.41,49.22a22.13,22.13,0,0,1,17.37,8.89,22.2,22.2,0,0,1,0,26.67,22.27,22.27,0,0,1-14.6,8.67,23.51,23.51,0,0,1-2.81.21"/><path class="cls-9" d="M71.59,93.66a21.24,21.24,0,0,1-4-.42A22.23,22.23,0,0,1,50.91,64.41a21.93,21.93,0,0,1,3.31-6.3,22.17,22.17,0,0,1,11.1-7.87,21.88,21.88,0,0,1,6.31-1"/><path class="cls-9" d="M72.41,49.22a10.26,10.26,0,0,1,4,1.05,16.6,16.6,0,0,1,7.22,7.84,26.67,26.67,0,0,1,2.18,6.35,32.9,32.9,0,0,1,0,14,27,27,0,0,1-2.18,6.35c-2.05,4.16-5,7.19-8.5,8.35a9.64,9.64,0,0,1-2.81.53h-.78a10.17,10.17,0,0,1-3.4-.75c-3.19-1.31-5.94-4.22-7.87-8.13a27,27,0,0,1-2.18-6.35,32.9,32.9,0,0,1,0-14,26.67,26.67,0,0,1,2.18-6.35C62.25,54.19,65,51.28,68.2,50a10.11,10.11,0,0,1,3.43-.76"/><path class="cls-9" d="M78.35,71.44c0,2.44-.11,4.79-.32,7a55.22,55.22,0,0,1-1,6.35c-.74,3.46-1.77,6.14-3,7.61A2.86,2.86,0,0,1,72,93.67a3.12,3.12,0,0,1-2.38-1.62,21,21,0,0,1-2.7-7.27,55.22,55.22,0,0,1-1-6.35c-.21-2.2-.32-4.55-.32-7s.11-4.79.32-7a54.56,54.56,0,0,1,1-6.35c1-4.77,2.58-8,4.36-8.75a2,2,0,0,1,.72-.15,3.18,3.18,0,0,1,2.45,1.73,21.12,21.12,0,0,1,2.63,7.17,54.56,54.56,0,0,1,1,6.35C78.24,66.65,78.35,69,78.35,71.44Z"/><polyline class="cls-9" points="49.77 71.44 57.39 71.44 65.65 71.44 78.35 71.44 86.61 71.44 94.23 71.44"/><polyline class="cls-9" points="51.04 64.46 58.14 64.46 65.97 64.46 78.03 64.46 85.86 64.46 92.96 64.46"/><polyline class="cls-9" points="51.04 78.43 58.14 78.43 65.97 78.43 78.03 78.43 85.86 78.43 92.96 78.43"/><polyline class="cls-9" points="54.22 58.1 60.31 58.1 66.92 58.1 77.08 58.1 83.69 58.1 89.78 58.1"/><polyline class="cls-9" points="54.22 84.78 60.31 84.78 66.92 84.78 77.08 84.78 83.69 84.78 89.78 84.78"/><path class="cls-9" d="M76.58,33.62,79.4,30.8a6.32,6.32,0,0,0,6.2-5.15C86.86,19,87,8.15,74.91,7.94a.08.08,0,0,0-.07,0,.06.06,0,0,0,0,.08c1.25.53,5.61,2.73,3.83,7.5a5.91,5.91,0,0,1-3.83,3.16A27.36,27.36,0,0,1,66,19.87h-.26a3.2,3.2,0,0,0-3,3.2v4.61a1,1,0,0,0,2,.17.47.47,0,0,0,0-.17v-.35a4.85,4.85,0,0,1,8.28-3.43,4.8,4.8,0,0,1,1.43,3.43v5.44a1.17,1.17,0,0,0,.26.75,1.2,1.2,0,0,0,1,.44A1.14,1.14,0,0,0,76.58,33.62Z"/><circle class="cls-9" cx="69.78" cy="27.31" r="2.22"/><path class="cls-9" d="M70.11,9.31a2.54,2.54,0,1,1,4.43-1.69,3,3,0,0,1,0,.31,2.55,2.55,0,0,1-.89,1.64,2.52,2.52,0,0,1-1.63.59A2.49,2.49,0,0,1,70.11,9.31Z"/></svg>